%TF.GenerationSoftware,KiCad,Pcbnew,8.0.0*%
%TF.CreationDate,2024-03-06T11:50:55-05:00*%
%TF.ProjectId,sensobot,73656e73-6f62-46f7-942e-6b696361645f,rev?*%
%TF.SameCoordinates,Original*%
%TF.FileFunction,Legend,Top*%
%TF.FilePolarity,Positive*%
%FSLAX46Y46*%
G04 Gerber Fmt 4.6, Leading zero omitted, Abs format (unit mm)*
G04 Created by KiCad (PCBNEW 8.0.0) date 2024-03-06 11:50:55*
%MOMM*%
%LPD*%
G01*
G04 APERTURE LIST*
%ADD10C,0.150000*%
%ADD11C,0.120000*%
%ADD12C,0.127000*%
G04 APERTURE END LIST*
D10*
X124062333Y-87544180D02*
X124062333Y-86829895D01*
X124062333Y-86829895D02*
X124109952Y-86687038D01*
X124109952Y-86687038D02*
X124205190Y-86591800D01*
X124205190Y-86591800D02*
X124348047Y-86544180D01*
X124348047Y-86544180D02*
X124443285Y-86544180D01*
X123062333Y-86544180D02*
X123633761Y-86544180D01*
X123348047Y-86544180D02*
X123348047Y-87544180D01*
X123348047Y-87544180D02*
X123443285Y-87401323D01*
X123443285Y-87401323D02*
X123538523Y-87306085D01*
X123538523Y-87306085D02*
X123633761Y-87258466D01*
X126602476Y-85945819D02*
X126602476Y-86660104D01*
X126602476Y-86660104D02*
X126554857Y-86802961D01*
X126554857Y-86802961D02*
X126459619Y-86898200D01*
X126459619Y-86898200D02*
X126316762Y-86945819D01*
X126316762Y-86945819D02*
X126221524Y-86945819D01*
X127602476Y-86945819D02*
X127031048Y-86945819D01*
X127316762Y-86945819D02*
X127316762Y-85945819D01*
X127316762Y-85945819D02*
X127221524Y-86088676D01*
X127221524Y-86088676D02*
X127126286Y-86183914D01*
X127126286Y-86183914D02*
X127031048Y-86231533D01*
X128221524Y-85945819D02*
X128316762Y-85945819D01*
X128316762Y-85945819D02*
X128412000Y-85993438D01*
X128412000Y-85993438D02*
X128459619Y-86041057D01*
X128459619Y-86041057D02*
X128507238Y-86136295D01*
X128507238Y-86136295D02*
X128554857Y-86326771D01*
X128554857Y-86326771D02*
X128554857Y-86564866D01*
X128554857Y-86564866D02*
X128507238Y-86755342D01*
X128507238Y-86755342D02*
X128459619Y-86850580D01*
X128459619Y-86850580D02*
X128412000Y-86898200D01*
X128412000Y-86898200D02*
X128316762Y-86945819D01*
X128316762Y-86945819D02*
X128221524Y-86945819D01*
X128221524Y-86945819D02*
X128126286Y-86898200D01*
X128126286Y-86898200D02*
X128078667Y-86850580D01*
X128078667Y-86850580D02*
X128031048Y-86755342D01*
X128031048Y-86755342D02*
X127983429Y-86564866D01*
X127983429Y-86564866D02*
X127983429Y-86326771D01*
X127983429Y-86326771D02*
X128031048Y-86136295D01*
X128031048Y-86136295D02*
X128078667Y-86041057D01*
X128078667Y-86041057D02*
X128126286Y-85993438D01*
X128126286Y-85993438D02*
X128221524Y-85945819D01*
X122371019Y-89211933D02*
X123085304Y-89211933D01*
X123085304Y-89211933D02*
X123228161Y-89259552D01*
X123228161Y-89259552D02*
X123323400Y-89354790D01*
X123323400Y-89354790D02*
X123371019Y-89497647D01*
X123371019Y-89497647D02*
X123371019Y-89592885D01*
X123371019Y-88688123D02*
X123371019Y-88497647D01*
X123371019Y-88497647D02*
X123323400Y-88402409D01*
X123323400Y-88402409D02*
X123275780Y-88354790D01*
X123275780Y-88354790D02*
X123132923Y-88259552D01*
X123132923Y-88259552D02*
X122942447Y-88211933D01*
X122942447Y-88211933D02*
X122561495Y-88211933D01*
X122561495Y-88211933D02*
X122466257Y-88259552D01*
X122466257Y-88259552D02*
X122418638Y-88307171D01*
X122418638Y-88307171D02*
X122371019Y-88402409D01*
X122371019Y-88402409D02*
X122371019Y-88592885D01*
X122371019Y-88592885D02*
X122418638Y-88688123D01*
X122418638Y-88688123D02*
X122466257Y-88735742D01*
X122466257Y-88735742D02*
X122561495Y-88783361D01*
X122561495Y-88783361D02*
X122799590Y-88783361D01*
X122799590Y-88783361D02*
X122894828Y-88735742D01*
X122894828Y-88735742D02*
X122942447Y-88688123D01*
X122942447Y-88688123D02*
X122990066Y-88592885D01*
X122990066Y-88592885D02*
X122990066Y-88402409D01*
X122990066Y-88402409D02*
X122942447Y-88307171D01*
X122942447Y-88307171D02*
X122894828Y-88259552D01*
X122894828Y-88259552D02*
X122799590Y-88211933D01*
X124705333Y-80722819D02*
X124372000Y-80246628D01*
X124133905Y-80722819D02*
X124133905Y-79722819D01*
X124133905Y-79722819D02*
X124514857Y-79722819D01*
X124514857Y-79722819D02*
X124610095Y-79770438D01*
X124610095Y-79770438D02*
X124657714Y-79818057D01*
X124657714Y-79818057D02*
X124705333Y-79913295D01*
X124705333Y-79913295D02*
X124705333Y-80056152D01*
X124705333Y-80056152D02*
X124657714Y-80151390D01*
X124657714Y-80151390D02*
X124610095Y-80199009D01*
X124610095Y-80199009D02*
X124514857Y-80246628D01*
X124514857Y-80246628D02*
X124133905Y-80246628D01*
X125086286Y-79818057D02*
X125133905Y-79770438D01*
X125133905Y-79770438D02*
X125229143Y-79722819D01*
X125229143Y-79722819D02*
X125467238Y-79722819D01*
X125467238Y-79722819D02*
X125562476Y-79770438D01*
X125562476Y-79770438D02*
X125610095Y-79818057D01*
X125610095Y-79818057D02*
X125657714Y-79913295D01*
X125657714Y-79913295D02*
X125657714Y-80008533D01*
X125657714Y-80008533D02*
X125610095Y-80151390D01*
X125610095Y-80151390D02*
X125038667Y-80722819D01*
X125038667Y-80722819D02*
X125657714Y-80722819D01*
X151468180Y-76164333D02*
X151944371Y-75831000D01*
X151468180Y-75592905D02*
X152468180Y-75592905D01*
X152468180Y-75592905D02*
X152468180Y-75973857D01*
X152468180Y-75973857D02*
X152420561Y-76069095D01*
X152420561Y-76069095D02*
X152372942Y-76116714D01*
X152372942Y-76116714D02*
X152277704Y-76164333D01*
X152277704Y-76164333D02*
X152134847Y-76164333D01*
X152134847Y-76164333D02*
X152039609Y-76116714D01*
X152039609Y-76116714D02*
X151991990Y-76069095D01*
X151991990Y-76069095D02*
X151944371Y-75973857D01*
X151944371Y-75973857D02*
X151944371Y-75592905D01*
X151468180Y-77116714D02*
X151468180Y-76545286D01*
X151468180Y-76831000D02*
X152468180Y-76831000D01*
X152468180Y-76831000D02*
X152325323Y-76735762D01*
X152325323Y-76735762D02*
X152230085Y-76640524D01*
X152230085Y-76640524D02*
X152182466Y-76545286D01*
X151833180Y-70187474D02*
X151118895Y-70187474D01*
X151118895Y-70187474D02*
X150976038Y-70139855D01*
X150976038Y-70139855D02*
X150880800Y-70044617D01*
X150880800Y-70044617D02*
X150833180Y-69901760D01*
X150833180Y-69901760D02*
X150833180Y-69806522D01*
X150833180Y-71187474D02*
X150833180Y-70616046D01*
X150833180Y-70901760D02*
X151833180Y-70901760D01*
X151833180Y-70901760D02*
X151690323Y-70806522D01*
X151690323Y-70806522D02*
X151595085Y-70711284D01*
X151595085Y-70711284D02*
X151547466Y-70616046D01*
X150833180Y-72139855D02*
X150833180Y-71568427D01*
X150833180Y-71854141D02*
X151833180Y-71854141D01*
X151833180Y-71854141D02*
X151690323Y-71758903D01*
X151690323Y-71758903D02*
X151595085Y-71663665D01*
X151595085Y-71663665D02*
X151547466Y-71568427D01*
X127078666Y-76293819D02*
X127078666Y-77008104D01*
X127078666Y-77008104D02*
X127031047Y-77150961D01*
X127031047Y-77150961D02*
X126935809Y-77246200D01*
X126935809Y-77246200D02*
X126792952Y-77293819D01*
X126792952Y-77293819D02*
X126697714Y-77293819D01*
X127697714Y-76722390D02*
X127602476Y-76674771D01*
X127602476Y-76674771D02*
X127554857Y-76627152D01*
X127554857Y-76627152D02*
X127507238Y-76531914D01*
X127507238Y-76531914D02*
X127507238Y-76484295D01*
X127507238Y-76484295D02*
X127554857Y-76389057D01*
X127554857Y-76389057D02*
X127602476Y-76341438D01*
X127602476Y-76341438D02*
X127697714Y-76293819D01*
X127697714Y-76293819D02*
X127888190Y-76293819D01*
X127888190Y-76293819D02*
X127983428Y-76341438D01*
X127983428Y-76341438D02*
X128031047Y-76389057D01*
X128031047Y-76389057D02*
X128078666Y-76484295D01*
X128078666Y-76484295D02*
X128078666Y-76531914D01*
X128078666Y-76531914D02*
X128031047Y-76627152D01*
X128031047Y-76627152D02*
X127983428Y-76674771D01*
X127983428Y-76674771D02*
X127888190Y-76722390D01*
X127888190Y-76722390D02*
X127697714Y-76722390D01*
X127697714Y-76722390D02*
X127602476Y-76770009D01*
X127602476Y-76770009D02*
X127554857Y-76817628D01*
X127554857Y-76817628D02*
X127507238Y-76912866D01*
X127507238Y-76912866D02*
X127507238Y-77103342D01*
X127507238Y-77103342D02*
X127554857Y-77198580D01*
X127554857Y-77198580D02*
X127602476Y-77246200D01*
X127602476Y-77246200D02*
X127697714Y-77293819D01*
X127697714Y-77293819D02*
X127888190Y-77293819D01*
X127888190Y-77293819D02*
X127983428Y-77246200D01*
X127983428Y-77246200D02*
X128031047Y-77198580D01*
X128031047Y-77198580D02*
X128078666Y-77103342D01*
X128078666Y-77103342D02*
X128078666Y-76912866D01*
X128078666Y-76912866D02*
X128031047Y-76817628D01*
X128031047Y-76817628D02*
X127983428Y-76770009D01*
X127983428Y-76770009D02*
X127888190Y-76722390D01*
X148583819Y-87332333D02*
X149298104Y-87332333D01*
X149298104Y-87332333D02*
X149440961Y-87379952D01*
X149440961Y-87379952D02*
X149536200Y-87475190D01*
X149536200Y-87475190D02*
X149583819Y-87618047D01*
X149583819Y-87618047D02*
X149583819Y-87713285D01*
X148583819Y-86951380D02*
X148583819Y-86284714D01*
X148583819Y-86284714D02*
X149583819Y-86713285D01*
X148456819Y-84799333D02*
X149171104Y-84799333D01*
X149171104Y-84799333D02*
X149313961Y-84846952D01*
X149313961Y-84846952D02*
X149409200Y-84942190D01*
X149409200Y-84942190D02*
X149456819Y-85085047D01*
X149456819Y-85085047D02*
X149456819Y-85180285D01*
X148456819Y-83894571D02*
X148456819Y-84085047D01*
X148456819Y-84085047D02*
X148504438Y-84180285D01*
X148504438Y-84180285D02*
X148552057Y-84227904D01*
X148552057Y-84227904D02*
X148694914Y-84323142D01*
X148694914Y-84323142D02*
X148885390Y-84370761D01*
X148885390Y-84370761D02*
X149266342Y-84370761D01*
X149266342Y-84370761D02*
X149361580Y-84323142D01*
X149361580Y-84323142D02*
X149409200Y-84275523D01*
X149409200Y-84275523D02*
X149456819Y-84180285D01*
X149456819Y-84180285D02*
X149456819Y-83989809D01*
X149456819Y-83989809D02*
X149409200Y-83894571D01*
X149409200Y-83894571D02*
X149361580Y-83846952D01*
X149361580Y-83846952D02*
X149266342Y-83799333D01*
X149266342Y-83799333D02*
X149028247Y-83799333D01*
X149028247Y-83799333D02*
X148933009Y-83846952D01*
X148933009Y-83846952D02*
X148885390Y-83894571D01*
X148885390Y-83894571D02*
X148837771Y-83989809D01*
X148837771Y-83989809D02*
X148837771Y-84180285D01*
X148837771Y-84180285D02*
X148885390Y-84275523D01*
X148885390Y-84275523D02*
X148933009Y-84323142D01*
X148933009Y-84323142D02*
X149028247Y-84370761D01*
X121395333Y-78781180D02*
X121395333Y-78066895D01*
X121395333Y-78066895D02*
X121442952Y-77924038D01*
X121442952Y-77924038D02*
X121538190Y-77828800D01*
X121538190Y-77828800D02*
X121681047Y-77781180D01*
X121681047Y-77781180D02*
X121776285Y-77781180D01*
X120442952Y-78781180D02*
X120919142Y-78781180D01*
X120919142Y-78781180D02*
X120966761Y-78304990D01*
X120966761Y-78304990D02*
X120919142Y-78352609D01*
X120919142Y-78352609D02*
X120823904Y-78400228D01*
X120823904Y-78400228D02*
X120585809Y-78400228D01*
X120585809Y-78400228D02*
X120490571Y-78352609D01*
X120490571Y-78352609D02*
X120442952Y-78304990D01*
X120442952Y-78304990D02*
X120395333Y-78209752D01*
X120395333Y-78209752D02*
X120395333Y-77971657D01*
X120395333Y-77971657D02*
X120442952Y-77876419D01*
X120442952Y-77876419D02*
X120490571Y-77828800D01*
X120490571Y-77828800D02*
X120585809Y-77781180D01*
X120585809Y-77781180D02*
X120823904Y-77781180D01*
X120823904Y-77781180D02*
X120919142Y-77828800D01*
X120919142Y-77828800D02*
X120966761Y-77876419D01*
X121522333Y-83353180D02*
X121522333Y-82638895D01*
X121522333Y-82638895D02*
X121569952Y-82496038D01*
X121569952Y-82496038D02*
X121665190Y-82400800D01*
X121665190Y-82400800D02*
X121808047Y-82353180D01*
X121808047Y-82353180D02*
X121903285Y-82353180D01*
X120617571Y-83019847D02*
X120617571Y-82353180D01*
X120855666Y-83400800D02*
X121093761Y-82686514D01*
X121093761Y-82686514D02*
X120474714Y-82686514D01*
X124951333Y-78781180D02*
X124951333Y-78066895D01*
X124951333Y-78066895D02*
X124998952Y-77924038D01*
X124998952Y-77924038D02*
X125094190Y-77828800D01*
X125094190Y-77828800D02*
X125237047Y-77781180D01*
X125237047Y-77781180D02*
X125332285Y-77781180D01*
X124570380Y-78781180D02*
X123951333Y-78781180D01*
X123951333Y-78781180D02*
X124284666Y-78400228D01*
X124284666Y-78400228D02*
X124141809Y-78400228D01*
X124141809Y-78400228D02*
X124046571Y-78352609D01*
X124046571Y-78352609D02*
X123998952Y-78304990D01*
X123998952Y-78304990D02*
X123951333Y-78209752D01*
X123951333Y-78209752D02*
X123951333Y-77971657D01*
X123951333Y-77971657D02*
X123998952Y-77876419D01*
X123998952Y-77876419D02*
X124046571Y-77828800D01*
X124046571Y-77828800D02*
X124141809Y-77781180D01*
X124141809Y-77781180D02*
X124427523Y-77781180D01*
X124427523Y-77781180D02*
X124522761Y-77828800D01*
X124522761Y-77828800D02*
X124570380Y-77876419D01*
X148456819Y-82008833D02*
X149171104Y-82008833D01*
X149171104Y-82008833D02*
X149313961Y-82056452D01*
X149313961Y-82056452D02*
X149409200Y-82151690D01*
X149409200Y-82151690D02*
X149456819Y-82294547D01*
X149456819Y-82294547D02*
X149456819Y-82389785D01*
X148552057Y-81580261D02*
X148504438Y-81532642D01*
X148504438Y-81532642D02*
X148456819Y-81437404D01*
X148456819Y-81437404D02*
X148456819Y-81199309D01*
X148456819Y-81199309D02*
X148504438Y-81104071D01*
X148504438Y-81104071D02*
X148552057Y-81056452D01*
X148552057Y-81056452D02*
X148647295Y-81008833D01*
X148647295Y-81008833D02*
X148742533Y-81008833D01*
X148742533Y-81008833D02*
X148885390Y-81056452D01*
X148885390Y-81056452D02*
X149456819Y-81627880D01*
X149456819Y-81627880D02*
X149456819Y-81008833D01*
X156217094Y-76384180D02*
X156217094Y-77384180D01*
X156217094Y-77384180D02*
X155978999Y-77384180D01*
X155978999Y-77384180D02*
X155836142Y-77336561D01*
X155836142Y-77336561D02*
X155740904Y-77241323D01*
X155740904Y-77241323D02*
X155693285Y-77146085D01*
X155693285Y-77146085D02*
X155645666Y-76955609D01*
X155645666Y-76955609D02*
X155645666Y-76812752D01*
X155645666Y-76812752D02*
X155693285Y-76622276D01*
X155693285Y-76622276D02*
X155740904Y-76527038D01*
X155740904Y-76527038D02*
X155836142Y-76431800D01*
X155836142Y-76431800D02*
X155978999Y-76384180D01*
X155978999Y-76384180D02*
X156217094Y-76384180D01*
X154693285Y-76384180D02*
X155264713Y-76384180D01*
X154978999Y-76384180D02*
X154978999Y-77384180D01*
X154978999Y-77384180D02*
X155074237Y-77241323D01*
X155074237Y-77241323D02*
X155169475Y-77146085D01*
X155169475Y-77146085D02*
X155264713Y-77098466D01*
X138344666Y-67874783D02*
X138344666Y-68441450D01*
X138344666Y-68441450D02*
X138378000Y-68508116D01*
X138378000Y-68508116D02*
X138411333Y-68541450D01*
X138411333Y-68541450D02*
X138478000Y-68574783D01*
X138478000Y-68574783D02*
X138611333Y-68574783D01*
X138611333Y-68574783D02*
X138678000Y-68541450D01*
X138678000Y-68541450D02*
X138711333Y-68508116D01*
X138711333Y-68508116D02*
X138744666Y-68441450D01*
X138744666Y-68441450D02*
X138744666Y-67874783D01*
X139444666Y-68574783D02*
X139044666Y-68574783D01*
X139244666Y-68574783D02*
X139244666Y-67874783D01*
X139244666Y-67874783D02*
X139177999Y-67974783D01*
X139177999Y-67974783D02*
X139111333Y-68041450D01*
X139111333Y-68041450D02*
X139044666Y-68074783D01*
D11*
%TO.C,J1*%
X125445000Y-84018000D02*
X125445000Y-85348000D01*
X124115000Y-84018000D02*
X125445000Y-84018000D01*
X122845000Y-84018000D02*
X120245000Y-84018000D01*
X122845000Y-84018000D02*
X122845000Y-86678000D01*
X120245000Y-84018000D02*
X120245000Y-86678000D01*
X122845000Y-86678000D02*
X120245000Y-86678000D01*
%TO.C,J10*%
X128742000Y-89793000D02*
X128742000Y-89853000D01*
X126082000Y-89853000D02*
X128742000Y-89853000D01*
X126082000Y-89793000D02*
X128742000Y-89793000D01*
X126082000Y-89793000D02*
X126082000Y-89853000D01*
X126082000Y-88523000D02*
X126082000Y-87193000D01*
X126082000Y-87193000D02*
X127412000Y-87193000D01*
%TO.C,J9*%
X119859000Y-87193000D02*
X121189000Y-87193000D01*
X119859000Y-88523000D02*
X119859000Y-87193000D01*
X119859000Y-89793000D02*
X119859000Y-89853000D01*
X119859000Y-89793000D02*
X122519000Y-89793000D01*
X119859000Y-89853000D02*
X122519000Y-89853000D01*
X122519000Y-89793000D02*
X122519000Y-89853000D01*
%TO.C,R2*%
X125842000Y-81919000D02*
X126462000Y-81919000D01*
X125842000Y-81919000D02*
G75*
G02*
X124002000Y-81919000I-920000J0D01*
G01*
X124002000Y-81919000D02*
G75*
G02*
X125842000Y-81919000I920000J0D01*
G01*
%TO.C,R1*%
X151065000Y-76916000D02*
G75*
G02*
X149225000Y-76916000I-920000J0D01*
G01*
X149225000Y-76916000D02*
G75*
G02*
X151065000Y-76916000I920000J0D01*
G01*
X150145000Y-75996000D02*
X150145000Y-75376000D01*
%TO.C,J11*%
X148307000Y-70302000D02*
X149637000Y-70302000D01*
X148307000Y-71632000D02*
X148307000Y-70302000D01*
X148307000Y-72902000D02*
X148307000Y-72962000D01*
X148307000Y-72902000D02*
X150967000Y-72902000D01*
X148307000Y-72962000D02*
X150967000Y-72962000D01*
X150967000Y-72902000D02*
X150967000Y-72962000D01*
%TO.C,J8*%
X125955000Y-77541000D02*
X127285000Y-77541000D01*
X125955000Y-78871000D02*
X125955000Y-77541000D01*
X125955000Y-80141000D02*
X125955000Y-80201000D01*
X125955000Y-80141000D02*
X128615000Y-80141000D01*
X125955000Y-80201000D02*
X128615000Y-80201000D01*
X128615000Y-80141000D02*
X128615000Y-80201000D01*
%TO.C,J7*%
X157556000Y-85669000D02*
X157556000Y-86999000D01*
X156226000Y-85669000D02*
X157556000Y-85669000D01*
X154956000Y-85669000D02*
X149816000Y-85669000D01*
X154956000Y-85669000D02*
X154956000Y-88329000D01*
X149816000Y-85669000D02*
X149816000Y-88329000D01*
X154956000Y-88329000D02*
X149816000Y-88329000D01*
%TO.C,J6*%
X154956000Y-84773000D02*
X149816000Y-84773000D01*
X149816000Y-82113000D02*
X149816000Y-84773000D01*
X154956000Y-82113000D02*
X154956000Y-84773000D01*
X154956000Y-82113000D02*
X149816000Y-82113000D01*
X156226000Y-82113000D02*
X157556000Y-82113000D01*
X157556000Y-82113000D02*
X157556000Y-83443000D01*
%TO.C,J5*%
X119732000Y-69809000D02*
X121062000Y-69809000D01*
X119732000Y-71139000D02*
X119732000Y-69809000D01*
X119732000Y-72409000D02*
X119732000Y-77549000D01*
X119732000Y-72409000D02*
X122392000Y-72409000D01*
X119732000Y-77549000D02*
X122392000Y-77549000D01*
X122392000Y-72409000D02*
X122392000Y-77549000D01*
%TO.C,J4*%
X120113000Y-79506000D02*
X120113000Y-79446000D01*
X122773000Y-79446000D02*
X120113000Y-79446000D01*
X122773000Y-79506000D02*
X120113000Y-79506000D01*
X122773000Y-79506000D02*
X122773000Y-79446000D01*
X122773000Y-80776000D02*
X122773000Y-82106000D01*
X122773000Y-82106000D02*
X121443000Y-82106000D01*
%TO.C,J3*%
X123415000Y-69809000D02*
X124745000Y-69809000D01*
X123415000Y-71139000D02*
X123415000Y-69809000D01*
X123415000Y-72409000D02*
X123415000Y-77549000D01*
X123415000Y-72409000D02*
X126075000Y-72409000D01*
X123415000Y-77549000D02*
X126075000Y-77549000D01*
X126075000Y-72409000D02*
X126075000Y-77549000D01*
%TO.C,J2*%
X154956000Y-81217000D02*
X149816000Y-81217000D01*
X149816000Y-78557000D02*
X149816000Y-81217000D01*
X154956000Y-78557000D02*
X154956000Y-81217000D01*
X154956000Y-78557000D02*
X149816000Y-78557000D01*
X156226000Y-78557000D02*
X157556000Y-78557000D01*
X157556000Y-78557000D02*
X157556000Y-79887000D01*
%TO.C,D1*%
X156262000Y-70591000D02*
X153172000Y-70591000D01*
X156261830Y-70591001D02*
G75*
G02*
X154716538Y-76140999I-1544830J-2559999D01*
G01*
X154717462Y-76141000D02*
G75*
G02*
X153172170Y-70591000I-462J2990000D01*
G01*
X157217000Y-73151000D02*
G75*
G02*
X152217000Y-73151000I-2500000J0D01*
G01*
X152217000Y-73151000D02*
G75*
G02*
X157217000Y-73151000I2500000J0D01*
G01*
D12*
%TO.C,U1*%
X129543500Y-69710750D02*
X129543500Y-90039250D01*
X129543500Y-90039250D02*
X147343500Y-90039250D01*
X130215041Y-69039250D02*
X129543500Y-69710750D01*
X133939500Y-74967250D02*
X133939500Y-67614250D01*
X133943500Y-67615250D02*
X142938500Y-67615250D01*
X142938500Y-67615250D02*
X142938500Y-74967250D01*
X142938500Y-74967250D02*
X133939500Y-74967250D01*
X147343500Y-69039250D02*
X130215041Y-69039250D01*
X147343500Y-90039250D02*
X147343500Y-69039250D01*
%TD*%
M02*
