M48
; DRILL file {KiCad 8.0.0} date 2024-03-06T11:50:58-0500
; FORMAT={-:-/ absolute / inch / decimal}
; #@! TF.CreationDate,2024-03-06T11:50:58-05:00
; #@! TF.GenerationSoftware,Kicad,Pcbnew,8.0.0
; #@! TF.FileFunction,Plated,1,2,PTH
FMAT,2
INCH
; #@! TA.AperFunction,Plated,PTH,ComponentDrill
T1C0.0276
; #@! TA.AperFunction,Plated,PTH,ComponentDrill
T2C0.0354
; #@! TA.AperFunction,Plated,PTH,ComponentDrill
T3C0.0394
; #@! TA.AperFunction,Plated,PTH,ViaDrill
T4C0.0400
; #@! TA.AperFunction,Plated,PTH,ComponentDrill
T5C0.0689
%
G90
G05
T1
X4.9182Y-3.2252
X5.0182Y-3.2252
X5.9112Y-2.9282
X5.9112Y-3.0282
T2
X6.0912Y-2.83
X6.0912Y-2.93
T3
X4.7662Y-2.8007
X4.7662Y-2.9007
X4.7662Y-3.0007
X4.7712Y-3.4852
X4.7812Y-3.1802
X4.7864Y-3.3602
X4.8864Y-3.3602
X4.9112Y-2.8007
X4.9112Y-2.9007
X4.9112Y-3.0007
X5.0112Y-3.1052
X5.0162Y-3.4852
X5.8912Y-2.8202
X5.9506Y-3.1452
X5.9506Y-3.2852
X5.9506Y-3.4252
X6.0506Y-3.1452
X6.0506Y-3.2852
X6.0506Y-3.4252
X6.1506Y-3.1452
X6.1506Y-3.2852
X6.1506Y-3.4252
T4
X5.6662Y-3.1152
X5.8462Y-2.9802
T5
X5.2773Y-3.0212
X5.2773Y-3.1393
M30
