%TF.GenerationSoftware,KiCad,Pcbnew,8.0.0*%
%TF.CreationDate,2024-03-06T11:50:55-05:00*%
%TF.ProjectId,sensobot,73656e73-6f62-46f7-942e-6b696361645f,rev?*%
%TF.SameCoordinates,Original*%
%TF.FileFunction,Legend,Bot*%
%TF.FilePolarity,Positive*%
%FSLAX46Y46*%
G04 Gerber Fmt 4.6, Leading zero omitted, Abs format (unit mm)*
G04 Created by KiCad (PCBNEW 8.0.0) date 2024-03-06 11:50:55*
%MOMM*%
%LPD*%
G01*
G04 APERTURE LIST*
%ADD10C,0.100000*%
%ADD11C,0.203200*%
%ADD12C,0.177800*%
G04 APERTURE END LIST*
D10*
X129975134Y-79067304D02*
X129498944Y-79067304D01*
X130070372Y-79353019D02*
X129737039Y-78353019D01*
X129737039Y-78353019D02*
X129403706Y-79353019D01*
X129117991Y-78448257D02*
X129070372Y-78400638D01*
X129070372Y-78400638D02*
X128975134Y-78353019D01*
X128975134Y-78353019D02*
X128737039Y-78353019D01*
X128737039Y-78353019D02*
X128641801Y-78400638D01*
X128641801Y-78400638D02*
X128594182Y-78448257D01*
X128594182Y-78448257D02*
X128546563Y-78543495D01*
X128546563Y-78543495D02*
X128546563Y-78638733D01*
X128546563Y-78638733D02*
X128594182Y-78781590D01*
X128594182Y-78781590D02*
X129165610Y-79353019D01*
X129165610Y-79353019D02*
X128546563Y-79353019D01*
D11*
X137851840Y-77005341D02*
X136073840Y-77005341D01*
X136666507Y-77731055D02*
X137851840Y-77731055D01*
X136835840Y-77731055D02*
X136751174Y-77803626D01*
X136751174Y-77803626D02*
X136666507Y-77948769D01*
X136666507Y-77948769D02*
X136666507Y-78166483D01*
X136666507Y-78166483D02*
X136751174Y-78311626D01*
X136751174Y-78311626D02*
X136920507Y-78384198D01*
X136920507Y-78384198D02*
X137851840Y-78384198D01*
X137767174Y-79037340D02*
X137851840Y-79182483D01*
X137851840Y-79182483D02*
X137851840Y-79472769D01*
X137851840Y-79472769D02*
X137767174Y-79617912D01*
X137767174Y-79617912D02*
X137597840Y-79690483D01*
X137597840Y-79690483D02*
X137513174Y-79690483D01*
X137513174Y-79690483D02*
X137343840Y-79617912D01*
X137343840Y-79617912D02*
X137259174Y-79472769D01*
X137259174Y-79472769D02*
X137259174Y-79255055D01*
X137259174Y-79255055D02*
X137174507Y-79109912D01*
X137174507Y-79109912D02*
X137005174Y-79037340D01*
X137005174Y-79037340D02*
X136920507Y-79037340D01*
X136920507Y-79037340D02*
X136751174Y-79109912D01*
X136751174Y-79109912D02*
X136666507Y-79255055D01*
X136666507Y-79255055D02*
X136666507Y-79472769D01*
X136666507Y-79472769D02*
X136751174Y-79617912D01*
X136666507Y-80125911D02*
X136666507Y-80706483D01*
X136073840Y-80343626D02*
X137597840Y-80343626D01*
X137597840Y-80343626D02*
X137767174Y-80416197D01*
X137767174Y-80416197D02*
X137851840Y-80561340D01*
X137851840Y-80561340D02*
X137851840Y-80706483D01*
X137851840Y-81867626D02*
X136920507Y-81867626D01*
X136920507Y-81867626D02*
X136751174Y-81795054D01*
X136751174Y-81795054D02*
X136666507Y-81649911D01*
X136666507Y-81649911D02*
X136666507Y-81359626D01*
X136666507Y-81359626D02*
X136751174Y-81214483D01*
X137767174Y-81867626D02*
X137851840Y-81722483D01*
X137851840Y-81722483D02*
X137851840Y-81359626D01*
X137851840Y-81359626D02*
X137767174Y-81214483D01*
X137767174Y-81214483D02*
X137597840Y-81141911D01*
X137597840Y-81141911D02*
X137428507Y-81141911D01*
X137428507Y-81141911D02*
X137259174Y-81214483D01*
X137259174Y-81214483D02*
X137174507Y-81359626D01*
X137174507Y-81359626D02*
X137174507Y-81722483D01*
X137174507Y-81722483D02*
X137089840Y-81867626D01*
X137851840Y-82593340D02*
X136073840Y-82593340D01*
X136751174Y-82593340D02*
X136666507Y-82738483D01*
X136666507Y-82738483D02*
X136666507Y-83028768D01*
X136666507Y-83028768D02*
X136751174Y-83173911D01*
X136751174Y-83173911D02*
X136835840Y-83246483D01*
X136835840Y-83246483D02*
X137005174Y-83319054D01*
X137005174Y-83319054D02*
X137513174Y-83319054D01*
X137513174Y-83319054D02*
X137682507Y-83246483D01*
X137682507Y-83246483D02*
X137767174Y-83173911D01*
X137767174Y-83173911D02*
X137851840Y-83028768D01*
X137851840Y-83028768D02*
X137851840Y-82738483D01*
X137851840Y-82738483D02*
X137767174Y-82593340D01*
X137851840Y-84189911D02*
X137767174Y-84044768D01*
X137767174Y-84044768D02*
X137682507Y-83972197D01*
X137682507Y-83972197D02*
X137513174Y-83899625D01*
X137513174Y-83899625D02*
X137005174Y-83899625D01*
X137005174Y-83899625D02*
X136835840Y-83972197D01*
X136835840Y-83972197D02*
X136751174Y-84044768D01*
X136751174Y-84044768D02*
X136666507Y-84189911D01*
X136666507Y-84189911D02*
X136666507Y-84407625D01*
X136666507Y-84407625D02*
X136751174Y-84552768D01*
X136751174Y-84552768D02*
X136835840Y-84625340D01*
X136835840Y-84625340D02*
X137005174Y-84697911D01*
X137005174Y-84697911D02*
X137513174Y-84697911D01*
X137513174Y-84697911D02*
X137682507Y-84625340D01*
X137682507Y-84625340D02*
X137767174Y-84552768D01*
X137767174Y-84552768D02*
X137851840Y-84407625D01*
X137851840Y-84407625D02*
X137851840Y-84189911D01*
X136666507Y-85133339D02*
X136666507Y-85713911D01*
X136073840Y-85351054D02*
X137597840Y-85351054D01*
X137597840Y-85351054D02*
X137767174Y-85423625D01*
X137767174Y-85423625D02*
X137851840Y-85568768D01*
X137851840Y-85568768D02*
X137851840Y-85713911D01*
D12*
X147598542Y-71532963D02*
X147339338Y-70907189D01*
X147413396Y-71085981D02*
X147337256Y-71012785D01*
X147337256Y-71012785D02*
X147279631Y-70984287D01*
X147279631Y-70984287D02*
X147182894Y-70971990D01*
X147182894Y-70971990D02*
X147104673Y-71004390D01*
X146738103Y-71889369D02*
X146534442Y-71397689D01*
X146534442Y-71397689D02*
X146536524Y-71292092D01*
X146536524Y-71292092D02*
X146596231Y-71214993D01*
X146596231Y-71214993D02*
X146752675Y-71150192D01*
X146752675Y-71150192D02*
X146849411Y-71162490D01*
X146719588Y-71844671D02*
X146816325Y-71856968D01*
X146816325Y-71856968D02*
X147011879Y-71775967D01*
X147011879Y-71775967D02*
X147071586Y-71698868D01*
X147071586Y-71698868D02*
X147073668Y-71593272D01*
X147073668Y-71593272D02*
X147036639Y-71503875D01*
X147036639Y-71503875D02*
X146960499Y-71430679D01*
X146960499Y-71430679D02*
X146863762Y-71418381D01*
X146863762Y-71418381D02*
X146668208Y-71499383D01*
X146668208Y-71499383D02*
X146571471Y-71487085D01*
X146087790Y-71425597D02*
X146476596Y-72364258D01*
X146106304Y-71470295D02*
X146009568Y-71457997D01*
X146009568Y-71457997D02*
X145853124Y-71522798D01*
X145853124Y-71522798D02*
X145793417Y-71599897D01*
X145793417Y-71599897D02*
X145772821Y-71660796D01*
X145772821Y-71660796D02*
X145770739Y-71766392D01*
X145770739Y-71766392D02*
X145881827Y-72034581D01*
X145881827Y-72034581D02*
X145957967Y-72107777D01*
X145957967Y-72107777D02*
X146015592Y-72136275D01*
X146015592Y-72136275D02*
X146112329Y-72148573D01*
X146112329Y-72148573D02*
X146268772Y-72083772D01*
X146268772Y-72083772D02*
X146328479Y-72006673D01*
X145603887Y-72359176D02*
X145215081Y-71420515D01*
X145251889Y-72504978D02*
X145048229Y-72013299D01*
X145048229Y-72013299D02*
X145050310Y-71907702D01*
X145050310Y-71907702D02*
X145110018Y-71830603D01*
X145110018Y-71830603D02*
X145227350Y-71782003D01*
X145227350Y-71782003D02*
X145324087Y-71794300D01*
X145324087Y-71794300D02*
X145381712Y-71822798D01*
X144508782Y-72812783D02*
X144305122Y-72321104D01*
X144305122Y-72321104D02*
X144307204Y-72215507D01*
X144307204Y-72215507D02*
X144366911Y-72138408D01*
X144366911Y-72138408D02*
X144523354Y-72073607D01*
X144523354Y-72073607D02*
X144620091Y-72085905D01*
X144490268Y-72768085D02*
X144587004Y-72780383D01*
X144587004Y-72780383D02*
X144782559Y-72699382D01*
X144782559Y-72699382D02*
X144842266Y-72622283D01*
X144842266Y-72622283D02*
X144844348Y-72516686D01*
X144844348Y-72516686D02*
X144807318Y-72427290D01*
X144807318Y-72427290D02*
X144731178Y-72354094D01*
X144731178Y-72354094D02*
X144634442Y-72341796D01*
X144634442Y-72341796D02*
X144438887Y-72422798D01*
X144438887Y-72422798D02*
X144342151Y-72410500D01*
X143786272Y-73059690D02*
X143883008Y-73071988D01*
X143883008Y-73071988D02*
X144039452Y-73007186D01*
X144039452Y-73007186D02*
X144099159Y-72930088D01*
X144099159Y-72930088D02*
X144101241Y-72824491D01*
X144101241Y-72824491D02*
X143953124Y-72466906D01*
X143953124Y-72466906D02*
X143876984Y-72393710D01*
X143876984Y-72393710D02*
X143780248Y-72381412D01*
X143780248Y-72381412D02*
X143623804Y-72446213D01*
X143623804Y-72446213D02*
X143564097Y-72523312D01*
X143564097Y-72523312D02*
X143562015Y-72628908D01*
X143562015Y-72628908D02*
X143599044Y-72718305D01*
X143599044Y-72718305D02*
X144027182Y-72645698D01*
X143296345Y-73314992D02*
X143356052Y-73237893D01*
X143356052Y-73237893D02*
X143358134Y-73132296D01*
X143358134Y-73132296D02*
X143024871Y-72327729D01*
X142631459Y-73590396D02*
X142427799Y-73098716D01*
X142427799Y-73098716D02*
X142429880Y-72993120D01*
X142429880Y-72993120D02*
X142489588Y-72916021D01*
X142489588Y-72916021D02*
X142646031Y-72851220D01*
X142646031Y-72851220D02*
X142742768Y-72863518D01*
X142612945Y-73545698D02*
X142709681Y-73557996D01*
X142709681Y-73557996D02*
X142905235Y-73476994D01*
X142905235Y-73476994D02*
X142964943Y-73399896D01*
X142964943Y-73399896D02*
X142967024Y-73294299D01*
X142967024Y-73294299D02*
X142929995Y-73204903D01*
X142929995Y-73204903D02*
X142853855Y-73131707D01*
X142853855Y-73131707D02*
X142757119Y-73119409D01*
X142757119Y-73119409D02*
X142561564Y-73200410D01*
X142561564Y-73200410D02*
X142464828Y-73188113D01*
X142240350Y-73752399D02*
X141851544Y-72813737D01*
X141999661Y-73171322D02*
X141902924Y-73159025D01*
X141902924Y-73159025D02*
X141746481Y-73223826D01*
X141746481Y-73223826D02*
X141686774Y-73300925D01*
X141686774Y-73300925D02*
X141666177Y-73361823D01*
X141666177Y-73361823D02*
X141664096Y-73467420D01*
X141664096Y-73467420D02*
X141775183Y-73735609D01*
X141775183Y-73735609D02*
X141851323Y-73808805D01*
X141851323Y-73808805D02*
X141908949Y-73837303D01*
X141908949Y-73837303D02*
X142005685Y-73849600D01*
X142005685Y-73849600D02*
X142162129Y-73784799D01*
X142162129Y-73784799D02*
X142221836Y-73707701D01*
X141497244Y-74060204D02*
X141238039Y-73434429D01*
X141312098Y-73613222D02*
X141235958Y-73540026D01*
X141235958Y-73540026D02*
X141178332Y-73511528D01*
X141178332Y-73511528D02*
X141081596Y-73499230D01*
X141081596Y-73499230D02*
X141003374Y-73531631D01*
X140636804Y-74416609D02*
X140433144Y-73924929D01*
X140433144Y-73924929D02*
X140435225Y-73819333D01*
X140435225Y-73819333D02*
X140494933Y-73742234D01*
X140494933Y-73742234D02*
X140651376Y-73677433D01*
X140651376Y-73677433D02*
X140748113Y-73689731D01*
X140618290Y-74371911D02*
X140715026Y-74384209D01*
X140715026Y-74384209D02*
X140910580Y-74303207D01*
X140910580Y-74303207D02*
X140970288Y-74226109D01*
X140970288Y-74226109D02*
X140972369Y-74120512D01*
X140972369Y-74120512D02*
X140935340Y-74031116D01*
X140935340Y-74031116D02*
X140859200Y-73957920D01*
X140859200Y-73957920D02*
X140762464Y-73945622D01*
X140762464Y-73945622D02*
X140566909Y-74026623D01*
X140566909Y-74026623D02*
X140470173Y-74014326D01*
X140245695Y-74578612D02*
X139986491Y-73952837D01*
X140023520Y-74042234D02*
X139965895Y-74013736D01*
X139965895Y-74013736D02*
X139869159Y-74001438D01*
X139869159Y-74001438D02*
X139751826Y-74050039D01*
X139751826Y-74050039D02*
X139692119Y-74127138D01*
X139692119Y-74127138D02*
X139690037Y-74232734D01*
X139690037Y-74232734D02*
X139893697Y-74724414D01*
X139690037Y-74232734D02*
X139613897Y-74159538D01*
X139613897Y-74159538D02*
X139517160Y-74147241D01*
X139517160Y-74147241D02*
X139399828Y-74195841D01*
X139399828Y-74195841D02*
X139340121Y-74272940D01*
X139340121Y-74272940D02*
X139338039Y-74378537D01*
X139338039Y-74378537D02*
X139541699Y-74870217D01*
X139171187Y-74971321D02*
X139111480Y-75048419D01*
X139111480Y-75048419D02*
X138955036Y-75113220D01*
X138955036Y-75113220D02*
X138858300Y-75100923D01*
X138858300Y-75100923D02*
X138782160Y-75027727D01*
X138782160Y-75027727D02*
X138763645Y-74983029D01*
X138763645Y-74983029D02*
X138765727Y-74877432D01*
X138765727Y-74877432D02*
X138825434Y-74800333D01*
X138825434Y-74800333D02*
X138942767Y-74751732D01*
X138942767Y-74751732D02*
X139002474Y-74674634D01*
X139002474Y-74674634D02*
X139004556Y-74569037D01*
X139004556Y-74569037D02*
X138986041Y-74524339D01*
X138986041Y-74524339D02*
X138909901Y-74451143D01*
X138909901Y-74451143D02*
X138813165Y-74438845D01*
X138813165Y-74438845D02*
X138695832Y-74487446D01*
X138695832Y-74487446D02*
X138636125Y-74564545D01*
X138448676Y-75218227D02*
X138428079Y-75279126D01*
X138428079Y-75279126D02*
X138485705Y-75307624D01*
X138485705Y-75307624D02*
X138506301Y-75246725D01*
X138506301Y-75246725D02*
X138448676Y-75218227D01*
X138448676Y-75218227D02*
X138485705Y-75307624D01*
X137724084Y-75570731D02*
X137820820Y-75583028D01*
X137820820Y-75583028D02*
X137977264Y-75518227D01*
X137977264Y-75518227D02*
X138036971Y-75441128D01*
X138036971Y-75441128D02*
X138057567Y-75380230D01*
X138057567Y-75380230D02*
X138059649Y-75274633D01*
X138059649Y-75274633D02*
X137948561Y-75006444D01*
X137948561Y-75006444D02*
X137872421Y-74933248D01*
X137872421Y-74933248D02*
X137814796Y-74904750D01*
X137814796Y-74904750D02*
X137718059Y-74892453D01*
X137718059Y-74892453D02*
X137561616Y-74957254D01*
X137561616Y-74957254D02*
X137501909Y-75034352D01*
X137273267Y-75809832D02*
X137332975Y-75732733D01*
X137332975Y-75732733D02*
X137353571Y-75671835D01*
X137353571Y-75671835D02*
X137355653Y-75566238D01*
X137355653Y-75566238D02*
X137244565Y-75298049D01*
X137244565Y-75298049D02*
X137168425Y-75224853D01*
X137168425Y-75224853D02*
X137110800Y-75196355D01*
X137110800Y-75196355D02*
X137014063Y-75184057D01*
X137014063Y-75184057D02*
X136896730Y-75232658D01*
X136896730Y-75232658D02*
X136837023Y-75309757D01*
X136837023Y-75309757D02*
X136816427Y-75370655D01*
X136816427Y-75370655D02*
X136814345Y-75476252D01*
X136814345Y-75476252D02*
X136925433Y-75744441D01*
X136925433Y-75744441D02*
X137001573Y-75817637D01*
X137001573Y-75817637D02*
X137059198Y-75846135D01*
X137059198Y-75846135D02*
X137155935Y-75858433D01*
X137155935Y-75858433D02*
X137273267Y-75809832D01*
X136647493Y-76069036D02*
X136388289Y-75443262D01*
X136425318Y-75532658D02*
X136367693Y-75504160D01*
X136367693Y-75504160D02*
X136270956Y-75491862D01*
X136270956Y-75491862D02*
X136153624Y-75540463D01*
X136153624Y-75540463D02*
X136093916Y-75617562D01*
X136093916Y-75617562D02*
X136091835Y-75723158D01*
X136091835Y-75723158D02*
X136295495Y-76214838D01*
X136091835Y-75723158D02*
X136015695Y-75649962D01*
X136015695Y-75649962D02*
X135918958Y-75637665D01*
X135918958Y-75637665D02*
X135801626Y-75686266D01*
X135801626Y-75686266D02*
X135741918Y-75763364D01*
X135741918Y-75763364D02*
X135739837Y-75868961D01*
X135739837Y-75868961D02*
X135943497Y-76360641D01*
X147965294Y-72418382D02*
X148224498Y-73044156D01*
X148002323Y-72507778D02*
X147944698Y-72479280D01*
X147944698Y-72479280D02*
X147847961Y-72466982D01*
X147847961Y-72466982D02*
X147730629Y-72515583D01*
X147730629Y-72515583D02*
X147670921Y-72592682D01*
X147670921Y-72592682D02*
X147668840Y-72698278D01*
X147668840Y-72698278D02*
X147872500Y-73189958D01*
X147300409Y-72693786D02*
X147364059Y-73400562D01*
X146909300Y-72855789D02*
X147364059Y-73400562D01*
X147364059Y-73400562D02*
X147534854Y-73591652D01*
X147534854Y-73591652D02*
X147592479Y-73620150D01*
X147592479Y-73620150D02*
X147689215Y-73632448D01*
X146485105Y-73712269D02*
X146581841Y-73724567D01*
X146581841Y-73724567D02*
X146738285Y-73659766D01*
X146738285Y-73659766D02*
X146797992Y-73582667D01*
X146797992Y-73582667D02*
X146818588Y-73521769D01*
X146818588Y-73521769D02*
X146820670Y-73416172D01*
X146820670Y-73416172D02*
X146709582Y-73147983D01*
X146709582Y-73147983D02*
X146633442Y-73074787D01*
X146633442Y-73074787D02*
X146575817Y-73046289D01*
X146575817Y-73046289D02*
X146479080Y-73033991D01*
X146479080Y-73033991D02*
X146322637Y-73098792D01*
X146322637Y-73098792D02*
X146262930Y-73175891D01*
X146151621Y-73902770D02*
X145892417Y-73276995D01*
X145966475Y-73455788D02*
X145890335Y-73382592D01*
X145890335Y-73382592D02*
X145832710Y-73354094D01*
X145832710Y-73354094D02*
X145735973Y-73341796D01*
X145735973Y-73341796D02*
X145657752Y-73374197D01*
X145311778Y-74198277D02*
X145408514Y-74210575D01*
X145408514Y-74210575D02*
X145564958Y-74145774D01*
X145564958Y-74145774D02*
X145624665Y-74068675D01*
X145624665Y-74068675D02*
X145626747Y-73963078D01*
X145626747Y-73963078D02*
X145478630Y-73605493D01*
X145478630Y-73605493D02*
X145402490Y-73532297D01*
X145402490Y-73532297D02*
X145305754Y-73519999D01*
X145305754Y-73519999D02*
X145149310Y-73584800D01*
X145149310Y-73584800D02*
X145089603Y-73661899D01*
X145089603Y-73661899D02*
X145087521Y-73767496D01*
X145087521Y-73767496D02*
X145124550Y-73856892D01*
X145124550Y-73856892D02*
X145552689Y-73784286D01*
X144959780Y-74344079D02*
X144900073Y-74421178D01*
X144900073Y-74421178D02*
X144743629Y-74485979D01*
X144743629Y-74485979D02*
X144646893Y-74473682D01*
X144646893Y-74473682D02*
X144570753Y-74400485D01*
X144570753Y-74400485D02*
X144552238Y-74355787D01*
X144552238Y-74355787D02*
X144554320Y-74250191D01*
X144554320Y-74250191D02*
X144614027Y-74173092D01*
X144614027Y-74173092D02*
X144731360Y-74124491D01*
X144731360Y-74124491D02*
X144791067Y-74047392D01*
X144791067Y-74047392D02*
X144793149Y-73941796D01*
X144793149Y-73941796D02*
X144774634Y-73897098D01*
X144774634Y-73897098D02*
X144698494Y-73823902D01*
X144698494Y-73823902D02*
X144601758Y-73811604D01*
X144601758Y-73811604D02*
X144484425Y-73860205D01*
X144484425Y-73860205D02*
X144424718Y-73937303D01*
X144274298Y-74680383D02*
X144015094Y-74054608D01*
X143885492Y-73741721D02*
X143943117Y-73770219D01*
X143943117Y-73770219D02*
X143922521Y-73831117D01*
X143922521Y-73831117D02*
X143864895Y-73802619D01*
X143864895Y-73802619D02*
X143885492Y-73741721D01*
X143885492Y-73741721D02*
X143922521Y-73831117D01*
X143903786Y-74781487D02*
X143844078Y-74858585D01*
X143844078Y-74858585D02*
X143687635Y-74923386D01*
X143687635Y-74923386D02*
X143590898Y-74911089D01*
X143590898Y-74911089D02*
X143514758Y-74837893D01*
X143514758Y-74837893D02*
X143496244Y-74793194D01*
X143496244Y-74793194D02*
X143498325Y-74687598D01*
X143498325Y-74687598D02*
X143558033Y-74610499D01*
X143558033Y-74610499D02*
X143675365Y-74561898D01*
X143675365Y-74561898D02*
X143735073Y-74484800D01*
X143735073Y-74484800D02*
X143737154Y-74379203D01*
X143737154Y-74379203D02*
X143718640Y-74334505D01*
X143718640Y-74334505D02*
X143642500Y-74261309D01*
X143642500Y-74261309D02*
X143545763Y-74249011D01*
X143545763Y-74249011D02*
X143428431Y-74297612D01*
X143428431Y-74297612D02*
X143368723Y-74374711D01*
X143076432Y-74443414D02*
X142763545Y-74573017D01*
X142829497Y-74179128D02*
X143162760Y-74983695D01*
X143162760Y-74983695D02*
X143160678Y-75089292D01*
X143160678Y-75089292D02*
X143100971Y-75166390D01*
X143100971Y-75166390D02*
X143022749Y-75198791D01*
X142631640Y-75360794D02*
X142691347Y-75283695D01*
X142691347Y-75283695D02*
X142711944Y-75222797D01*
X142711944Y-75222797D02*
X142714025Y-75117200D01*
X142714025Y-75117200D02*
X142602938Y-74849011D01*
X142602938Y-74849011D02*
X142526798Y-74775815D01*
X142526798Y-74775815D02*
X142469172Y-74747317D01*
X142469172Y-74747317D02*
X142372436Y-74735019D01*
X142372436Y-74735019D02*
X142255103Y-74783620D01*
X142255103Y-74783620D02*
X142195396Y-74860719D01*
X142195396Y-74860719D02*
X142174800Y-74921617D01*
X142174800Y-74921617D02*
X142172718Y-75027214D01*
X142172718Y-75027214D02*
X142283805Y-75295403D01*
X142283805Y-75295403D02*
X142359946Y-75368599D01*
X142359946Y-75368599D02*
X142417571Y-75397097D01*
X142417571Y-75397097D02*
X142514307Y-75409394D01*
X142514307Y-75409394D02*
X142631640Y-75360794D01*
X142005866Y-75619998D02*
X141746662Y-74994223D01*
X141820720Y-75173016D02*
X141744580Y-75099820D01*
X141744580Y-75099820D02*
X141686955Y-75071322D01*
X141686955Y-75071322D02*
X141590218Y-75059024D01*
X141590218Y-75059024D02*
X141511996Y-75091425D01*
X141460395Y-75741205D02*
X141439799Y-75802103D01*
X141439799Y-75802103D02*
X141497425Y-75830601D01*
X141497425Y-75830601D02*
X141518021Y-75769703D01*
X141518021Y-75769703D02*
X141460395Y-75741205D01*
X141460395Y-75741205D02*
X141497425Y-75830601D01*
X140735803Y-76093708D02*
X140832540Y-76106005D01*
X140832540Y-76106005D02*
X140988983Y-76041204D01*
X140988983Y-76041204D02*
X141048690Y-75964106D01*
X141048690Y-75964106D02*
X141069287Y-75903207D01*
X141069287Y-75903207D02*
X141071369Y-75797611D01*
X141071369Y-75797611D02*
X140960281Y-75529422D01*
X140960281Y-75529422D02*
X140884141Y-75456226D01*
X140884141Y-75456226D02*
X140826515Y-75427728D01*
X140826515Y-75427728D02*
X140729779Y-75415430D01*
X140729779Y-75415430D02*
X140573335Y-75480231D01*
X140573335Y-75480231D02*
X140513628Y-75557330D01*
X140284987Y-76332809D02*
X140344694Y-76255710D01*
X140344694Y-76255710D02*
X140365291Y-76194812D01*
X140365291Y-76194812D02*
X140367372Y-76089215D01*
X140367372Y-76089215D02*
X140256285Y-75821026D01*
X140256285Y-75821026D02*
X140180145Y-75747830D01*
X140180145Y-75747830D02*
X140122519Y-75719332D01*
X140122519Y-75719332D02*
X140025783Y-75707035D01*
X140025783Y-75707035D02*
X139908450Y-75755636D01*
X139908450Y-75755636D02*
X139848743Y-75832734D01*
X139848743Y-75832734D02*
X139828147Y-75893633D01*
X139828147Y-75893633D02*
X139826065Y-75999229D01*
X139826065Y-75999229D02*
X139937152Y-76267418D01*
X139937152Y-76267418D02*
X140013292Y-76340614D01*
X140013292Y-76340614D02*
X140070918Y-76369112D01*
X140070918Y-76369112D02*
X140167654Y-76381410D01*
X140167654Y-76381410D02*
X140284987Y-76332809D01*
X139659213Y-76592013D02*
X139400009Y-75966239D01*
X139437038Y-76055635D02*
X139379412Y-76027137D01*
X139379412Y-76027137D02*
X139282676Y-76014840D01*
X139282676Y-76014840D02*
X139165343Y-76063440D01*
X139165343Y-76063440D02*
X139105636Y-76140539D01*
X139105636Y-76140539D02*
X139103554Y-76246136D01*
X139103554Y-76246136D02*
X139307215Y-76737816D01*
X139103554Y-76246136D02*
X139027414Y-76172940D01*
X139027414Y-76172940D02*
X138930678Y-76160642D01*
X138930678Y-76160642D02*
X138813345Y-76209243D01*
X138813345Y-76209243D02*
X138753638Y-76286342D01*
X138753638Y-76286342D02*
X138751556Y-76391938D01*
X138751556Y-76391938D02*
X138955217Y-76883618D01*
X148669472Y-73897174D02*
X148733122Y-74603950D01*
X148733122Y-74603950D02*
X148278363Y-74059177D01*
X147794460Y-74992756D02*
X148263791Y-74798353D01*
X148029126Y-74895554D02*
X147640319Y-73956893D01*
X147640319Y-73956893D02*
X147774085Y-74058587D01*
X147774085Y-74058587D02*
X147889336Y-74115583D01*
X147889336Y-74115583D02*
X147986072Y-74127880D01*
X146816688Y-75397763D02*
X146427881Y-74459101D01*
X146427881Y-74459101D02*
X146431824Y-75242975D01*
X146431824Y-75242975D02*
X145880329Y-74685905D01*
X145880329Y-74685905D02*
X146269135Y-75624566D01*
X145526028Y-75932371D02*
X145322368Y-75440691D01*
X145322368Y-75440691D02*
X145324449Y-75335095D01*
X145324449Y-75335095D02*
X145384156Y-75257996D01*
X145384156Y-75257996D02*
X145540600Y-75193195D01*
X145540600Y-75193195D02*
X145637336Y-75205493D01*
X145507513Y-75887673D02*
X145604250Y-75899971D01*
X145604250Y-75899971D02*
X145799804Y-75818970D01*
X145799804Y-75818970D02*
X145859512Y-75741871D01*
X145859512Y-75741871D02*
X145861593Y-75636274D01*
X145861593Y-75636274D02*
X145824564Y-75546878D01*
X145824564Y-75546878D02*
X145748424Y-75473682D01*
X145748424Y-75473682D02*
X145651688Y-75461384D01*
X145651688Y-75461384D02*
X145456133Y-75542385D01*
X145456133Y-75542385D02*
X145359397Y-75530088D01*
X145134919Y-76094374D02*
X144875715Y-75468600D01*
X144949773Y-75647392D02*
X144873633Y-75574196D01*
X144873633Y-75574196D02*
X144816008Y-75545698D01*
X144816008Y-75545698D02*
X144719272Y-75533401D01*
X144719272Y-75533401D02*
X144641050Y-75565801D01*
X144255965Y-76406081D02*
X144352702Y-76418379D01*
X144352702Y-76418379D02*
X144509145Y-76353578D01*
X144509145Y-76353578D02*
X144568852Y-76276479D01*
X144568852Y-76276479D02*
X144589449Y-76215581D01*
X144589449Y-76215581D02*
X144591530Y-76109984D01*
X144591530Y-76109984D02*
X144480443Y-75841795D01*
X144480443Y-75841795D02*
X144404303Y-75768599D01*
X144404303Y-75768599D02*
X144346677Y-75740101D01*
X144346677Y-75740101D02*
X144249941Y-75727804D01*
X144249941Y-75727804D02*
X144093497Y-75792605D01*
X144093497Y-75792605D02*
X144033790Y-75869703D01*
X143922482Y-76596582D02*
X143533675Y-75657920D01*
X143570484Y-76742384D02*
X143366823Y-76250705D01*
X143366823Y-76250705D02*
X143368905Y-76145108D01*
X143368905Y-76145108D02*
X143428612Y-76068009D01*
X143428612Y-76068009D02*
X143545945Y-76019408D01*
X143545945Y-76019408D02*
X143642681Y-76031706D01*
X143642681Y-76031706D02*
X143700307Y-76060204D01*
X142240935Y-76298126D02*
X142183309Y-76269628D01*
X142183309Y-76269628D02*
X142086573Y-76257330D01*
X142086573Y-76257330D02*
X141891018Y-76338331D01*
X141891018Y-76338331D02*
X141831311Y-76415430D01*
X141831311Y-76415430D02*
X141810715Y-76476328D01*
X141810715Y-76476328D02*
X141808633Y-76581925D01*
X141808633Y-76581925D02*
X141845662Y-76671321D01*
X141845662Y-76671321D02*
X141940317Y-76789216D01*
X141940317Y-76789216D02*
X142631823Y-77131191D01*
X142631823Y-77131191D02*
X142123381Y-77341794D01*
X141226133Y-76613736D02*
X141147911Y-76646136D01*
X141147911Y-76646136D02*
X141088204Y-76723235D01*
X141088204Y-76723235D02*
X141067607Y-76784134D01*
X141067607Y-76784134D02*
X141065526Y-76889730D01*
X141065526Y-76889730D02*
X141100473Y-77084723D01*
X141100473Y-77084723D02*
X141193046Y-77308214D01*
X141193046Y-77308214D02*
X141306215Y-77470806D01*
X141306215Y-77470806D02*
X141382355Y-77544003D01*
X141382355Y-77544003D02*
X141439981Y-77572500D01*
X141439981Y-77572500D02*
X141536717Y-77584798D01*
X141536717Y-77584798D02*
X141614939Y-77552398D01*
X141614939Y-77552398D02*
X141674646Y-77475299D01*
X141674646Y-77475299D02*
X141695242Y-77414400D01*
X141695242Y-77414400D02*
X141697324Y-77308804D01*
X141697324Y-77308804D02*
X141662377Y-77113811D01*
X141662377Y-77113811D02*
X141569804Y-76890320D01*
X141569804Y-76890320D02*
X141456635Y-76727728D01*
X141456635Y-76727728D02*
X141380494Y-76654531D01*
X141380494Y-76654531D02*
X141322869Y-76626034D01*
X141322869Y-76626034D02*
X141226133Y-76613736D01*
X140676498Y-76946136D02*
X140618872Y-76917638D01*
X140618872Y-76917638D02*
X140522136Y-76905341D01*
X140522136Y-76905341D02*
X140326582Y-76986342D01*
X140326582Y-76986342D02*
X140266874Y-77063441D01*
X140266874Y-77063441D02*
X140246278Y-77124339D01*
X140246278Y-77124339D02*
X140244196Y-77229936D01*
X140244196Y-77229936D02*
X140281225Y-77319332D01*
X140281225Y-77319332D02*
X140375880Y-77437227D01*
X140375880Y-77437227D02*
X141067386Y-77779201D01*
X141067386Y-77779201D02*
X140558944Y-77989805D01*
X139595744Y-77655635D02*
X139854948Y-78281410D01*
X139643181Y-77217049D02*
X140116455Y-77806520D01*
X140116455Y-77806520D02*
X139608013Y-78017123D01*
D10*
X134016000Y-71251000D02*
X135209800Y-71200200D01*
X153446419Y-72539074D02*
X153446419Y-72062884D01*
X153446419Y-72062884D02*
X152446419Y-72062884D01*
X152922609Y-72872408D02*
X152922609Y-73205741D01*
X153446419Y-73348598D02*
X153446419Y-72872408D01*
X153446419Y-72872408D02*
X152446419Y-72872408D01*
X152446419Y-72872408D02*
X152446419Y-73348598D01*
X153446419Y-73777170D02*
X152446419Y-73777170D01*
X152446419Y-73777170D02*
X152446419Y-74015265D01*
X152446419Y-74015265D02*
X152494038Y-74158122D01*
X152494038Y-74158122D02*
X152589276Y-74253360D01*
X152589276Y-74253360D02*
X152684514Y-74300979D01*
X152684514Y-74300979D02*
X152874990Y-74348598D01*
X152874990Y-74348598D02*
X153017847Y-74348598D01*
X153017847Y-74348598D02*
X153208323Y-74300979D01*
X153208323Y-74300979D02*
X153303561Y-74253360D01*
X153303561Y-74253360D02*
X153398800Y-74158122D01*
X153398800Y-74158122D02*
X153446419Y-74015265D01*
X153446419Y-74015265D02*
X153446419Y-73777170D01*
X151727125Y-70250419D02*
X152203315Y-70250419D01*
X152203315Y-70250419D02*
X152250934Y-70726609D01*
X152250934Y-70726609D02*
X152203315Y-70678990D01*
X152203315Y-70678990D02*
X152108077Y-70631371D01*
X152108077Y-70631371D02*
X151869982Y-70631371D01*
X151869982Y-70631371D02*
X151774744Y-70678990D01*
X151774744Y-70678990D02*
X151727125Y-70726609D01*
X151727125Y-70726609D02*
X151679506Y-70821847D01*
X151679506Y-70821847D02*
X151679506Y-71059942D01*
X151679506Y-71059942D02*
X151727125Y-71155180D01*
X151727125Y-71155180D02*
X151774744Y-71202800D01*
X151774744Y-71202800D02*
X151869982Y-71250419D01*
X151869982Y-71250419D02*
X152108077Y-71250419D01*
X152108077Y-71250419D02*
X152203315Y-71202800D01*
X152203315Y-71202800D02*
X152250934Y-71155180D01*
X151393791Y-70250419D02*
X151060458Y-71250419D01*
X151060458Y-71250419D02*
X150727125Y-70250419D01*
X156699115Y-74171466D02*
X155937211Y-74171466D01*
X156318163Y-74552419D02*
X156318163Y-73790514D01*
X124999000Y-87126000D02*
X122459000Y-88269000D01*
X127412000Y-85221000D02*
X125253000Y-85475000D01*
X122967000Y-83570000D02*
X122205000Y-84459000D01*
X125253000Y-83570000D02*
X122967000Y-83570000D01*
X145956115Y-81607966D02*
X145194211Y-81607966D01*
X145575163Y-81988919D02*
X145575163Y-81227014D01*
X144384687Y-81465109D02*
X144241830Y-81512728D01*
X144241830Y-81512728D02*
X144194211Y-81560347D01*
X144194211Y-81560347D02*
X144146592Y-81655585D01*
X144146592Y-81655585D02*
X144146592Y-81798442D01*
X144146592Y-81798442D02*
X144194211Y-81893680D01*
X144194211Y-81893680D02*
X144241830Y-81941300D01*
X144241830Y-81941300D02*
X144337068Y-81988919D01*
X144337068Y-81988919D02*
X144718020Y-81988919D01*
X144718020Y-81988919D02*
X144718020Y-80988919D01*
X144718020Y-80988919D02*
X144384687Y-80988919D01*
X144384687Y-80988919D02*
X144289449Y-81036538D01*
X144289449Y-81036538D02*
X144241830Y-81084157D01*
X144241830Y-81084157D02*
X144194211Y-81179395D01*
X144194211Y-81179395D02*
X144194211Y-81274633D01*
X144194211Y-81274633D02*
X144241830Y-81369871D01*
X144241830Y-81369871D02*
X144289449Y-81417490D01*
X144289449Y-81417490D02*
X144384687Y-81465109D01*
X144384687Y-81465109D02*
X144718020Y-81465109D01*
X143765639Y-81703204D02*
X143289449Y-81703204D01*
X143860877Y-81988919D02*
X143527544Y-80988919D01*
X143527544Y-80988919D02*
X143194211Y-81988919D01*
X143003734Y-80988919D02*
X142432306Y-80988919D01*
X142718020Y-81988919D02*
X142718020Y-80988919D01*
X149816000Y-82878500D02*
X149816000Y-80211500D01*
X148924734Y-82068300D02*
X148781877Y-82115919D01*
X148781877Y-82115919D02*
X148543782Y-82115919D01*
X148543782Y-82115919D02*
X148448544Y-82068300D01*
X148448544Y-82068300D02*
X148400925Y-82020680D01*
X148400925Y-82020680D02*
X148353306Y-81925442D01*
X148353306Y-81925442D02*
X148353306Y-81830204D01*
X148353306Y-81830204D02*
X148400925Y-81734966D01*
X148400925Y-81734966D02*
X148448544Y-81687347D01*
X148448544Y-81687347D02*
X148543782Y-81639728D01*
X148543782Y-81639728D02*
X148734258Y-81592109D01*
X148734258Y-81592109D02*
X148829496Y-81544490D01*
X148829496Y-81544490D02*
X148877115Y-81496871D01*
X148877115Y-81496871D02*
X148924734Y-81401633D01*
X148924734Y-81401633D02*
X148924734Y-81306395D01*
X148924734Y-81306395D02*
X148877115Y-81211157D01*
X148877115Y-81211157D02*
X148829496Y-81163538D01*
X148829496Y-81163538D02*
X148734258Y-81115919D01*
X148734258Y-81115919D02*
X148496163Y-81115919D01*
X148496163Y-81115919D02*
X148353306Y-81163538D01*
X148067591Y-81115919D02*
X147734258Y-82115919D01*
X147734258Y-82115919D02*
X147400925Y-81115919D01*
X147115210Y-81211157D02*
X147067591Y-81163538D01*
X147067591Y-81163538D02*
X146972353Y-81115919D01*
X146972353Y-81115919D02*
X146734258Y-81115919D01*
X146734258Y-81115919D02*
X146639020Y-81163538D01*
X146639020Y-81163538D02*
X146591401Y-81211157D01*
X146591401Y-81211157D02*
X146543782Y-81306395D01*
X146543782Y-81306395D02*
X146543782Y-81401633D01*
X146543782Y-81401633D02*
X146591401Y-81544490D01*
X146591401Y-81544490D02*
X147162829Y-82115919D01*
X147162829Y-82115919D02*
X146543782Y-82115919D01*
X138894000Y-80211500D02*
X138894000Y-82878500D01*
X138894000Y-82878500D02*
X149816000Y-82878500D01*
X141241306Y-81036538D02*
X141336544Y-80988919D01*
X141336544Y-80988919D02*
X141479401Y-80988919D01*
X141479401Y-80988919D02*
X141622258Y-81036538D01*
X141622258Y-81036538D02*
X141717496Y-81131776D01*
X141717496Y-81131776D02*
X141765115Y-81227014D01*
X141765115Y-81227014D02*
X141812734Y-81417490D01*
X141812734Y-81417490D02*
X141812734Y-81560347D01*
X141812734Y-81560347D02*
X141765115Y-81750823D01*
X141765115Y-81750823D02*
X141717496Y-81846061D01*
X141717496Y-81846061D02*
X141622258Y-81941300D01*
X141622258Y-81941300D02*
X141479401Y-81988919D01*
X141479401Y-81988919D02*
X141384163Y-81988919D01*
X141384163Y-81988919D02*
X141241306Y-81941300D01*
X141241306Y-81941300D02*
X141193687Y-81893680D01*
X141193687Y-81893680D02*
X141193687Y-81560347D01*
X141193687Y-81560347D02*
X141384163Y-81560347D01*
X140765115Y-81988919D02*
X140765115Y-80988919D01*
X140765115Y-80988919D02*
X140193687Y-81988919D01*
X140193687Y-81988919D02*
X140193687Y-80988919D01*
X139717496Y-81988919D02*
X139717496Y-80988919D01*
X139717496Y-80988919D02*
X139479401Y-80988919D01*
X139479401Y-80988919D02*
X139336544Y-81036538D01*
X139336544Y-81036538D02*
X139241306Y-81131776D01*
X139241306Y-81131776D02*
X139193687Y-81227014D01*
X139193687Y-81227014D02*
X139146068Y-81417490D01*
X139146068Y-81417490D02*
X139146068Y-81560347D01*
X139146068Y-81560347D02*
X139193687Y-81750823D01*
X139193687Y-81750823D02*
X139241306Y-81846061D01*
X139241306Y-81846061D02*
X139336544Y-81941300D01*
X139336544Y-81941300D02*
X139479401Y-81988919D01*
X139479401Y-81988919D02*
X139717496Y-81988919D01*
X142196000Y-80211500D02*
X142196000Y-82878500D01*
X149816000Y-80211500D02*
X138894000Y-80211500D01*
X146260000Y-80211500D02*
X146260000Y-82878500D01*
X145956115Y-84398466D02*
X145194211Y-84398466D01*
X145575163Y-84779419D02*
X145575163Y-84017514D01*
X144384687Y-84255609D02*
X144241830Y-84303228D01*
X144241830Y-84303228D02*
X144194211Y-84350847D01*
X144194211Y-84350847D02*
X144146592Y-84446085D01*
X144146592Y-84446085D02*
X144146592Y-84588942D01*
X144146592Y-84588942D02*
X144194211Y-84684180D01*
X144194211Y-84684180D02*
X144241830Y-84731800D01*
X144241830Y-84731800D02*
X144337068Y-84779419D01*
X144337068Y-84779419D02*
X144718020Y-84779419D01*
X144718020Y-84779419D02*
X144718020Y-83779419D01*
X144718020Y-83779419D02*
X144384687Y-83779419D01*
X144384687Y-83779419D02*
X144289449Y-83827038D01*
X144289449Y-83827038D02*
X144241830Y-83874657D01*
X144241830Y-83874657D02*
X144194211Y-83969895D01*
X144194211Y-83969895D02*
X144194211Y-84065133D01*
X144194211Y-84065133D02*
X144241830Y-84160371D01*
X144241830Y-84160371D02*
X144289449Y-84207990D01*
X144289449Y-84207990D02*
X144384687Y-84255609D01*
X144384687Y-84255609D02*
X144718020Y-84255609D01*
X143765639Y-84493704D02*
X143289449Y-84493704D01*
X143860877Y-84779419D02*
X143527544Y-83779419D01*
X143527544Y-83779419D02*
X143194211Y-84779419D01*
X143003734Y-83779419D02*
X142432306Y-83779419D01*
X142718020Y-84779419D02*
X142718020Y-83779419D01*
X149816000Y-85669000D02*
X149816000Y-83002000D01*
X148924734Y-84858800D02*
X148781877Y-84906419D01*
X148781877Y-84906419D02*
X148543782Y-84906419D01*
X148543782Y-84906419D02*
X148448544Y-84858800D01*
X148448544Y-84858800D02*
X148400925Y-84811180D01*
X148400925Y-84811180D02*
X148353306Y-84715942D01*
X148353306Y-84715942D02*
X148353306Y-84620704D01*
X148353306Y-84620704D02*
X148400925Y-84525466D01*
X148400925Y-84525466D02*
X148448544Y-84477847D01*
X148448544Y-84477847D02*
X148543782Y-84430228D01*
X148543782Y-84430228D02*
X148734258Y-84382609D01*
X148734258Y-84382609D02*
X148829496Y-84334990D01*
X148829496Y-84334990D02*
X148877115Y-84287371D01*
X148877115Y-84287371D02*
X148924734Y-84192133D01*
X148924734Y-84192133D02*
X148924734Y-84096895D01*
X148924734Y-84096895D02*
X148877115Y-84001657D01*
X148877115Y-84001657D02*
X148829496Y-83954038D01*
X148829496Y-83954038D02*
X148734258Y-83906419D01*
X148734258Y-83906419D02*
X148496163Y-83906419D01*
X148496163Y-83906419D02*
X148353306Y-83954038D01*
X148067591Y-83906419D02*
X147734258Y-84906419D01*
X147734258Y-84906419D02*
X147400925Y-83906419D01*
X146543782Y-84906419D02*
X147115210Y-84906419D01*
X146829496Y-84906419D02*
X146829496Y-83906419D01*
X146829496Y-83906419D02*
X146924734Y-84049276D01*
X146924734Y-84049276D02*
X147019972Y-84144514D01*
X147019972Y-84144514D02*
X147115210Y-84192133D01*
X138894000Y-83002000D02*
X138894000Y-85669000D01*
X138894000Y-85669000D02*
X149816000Y-85669000D01*
X141241306Y-83827038D02*
X141336544Y-83779419D01*
X141336544Y-83779419D02*
X141479401Y-83779419D01*
X141479401Y-83779419D02*
X141622258Y-83827038D01*
X141622258Y-83827038D02*
X141717496Y-83922276D01*
X141717496Y-83922276D02*
X141765115Y-84017514D01*
X141765115Y-84017514D02*
X141812734Y-84207990D01*
X141812734Y-84207990D02*
X141812734Y-84350847D01*
X141812734Y-84350847D02*
X141765115Y-84541323D01*
X141765115Y-84541323D02*
X141717496Y-84636561D01*
X141717496Y-84636561D02*
X141622258Y-84731800D01*
X141622258Y-84731800D02*
X141479401Y-84779419D01*
X141479401Y-84779419D02*
X141384163Y-84779419D01*
X141384163Y-84779419D02*
X141241306Y-84731800D01*
X141241306Y-84731800D02*
X141193687Y-84684180D01*
X141193687Y-84684180D02*
X141193687Y-84350847D01*
X141193687Y-84350847D02*
X141384163Y-84350847D01*
X140765115Y-84779419D02*
X140765115Y-83779419D01*
X140765115Y-83779419D02*
X140193687Y-84779419D01*
X140193687Y-84779419D02*
X140193687Y-83779419D01*
X139717496Y-84779419D02*
X139717496Y-83779419D01*
X139717496Y-83779419D02*
X139479401Y-83779419D01*
X139479401Y-83779419D02*
X139336544Y-83827038D01*
X139336544Y-83827038D02*
X139241306Y-83922276D01*
X139241306Y-83922276D02*
X139193687Y-84017514D01*
X139193687Y-84017514D02*
X139146068Y-84207990D01*
X139146068Y-84207990D02*
X139146068Y-84350847D01*
X139146068Y-84350847D02*
X139193687Y-84541323D01*
X139193687Y-84541323D02*
X139241306Y-84636561D01*
X139241306Y-84636561D02*
X139336544Y-84731800D01*
X139336544Y-84731800D02*
X139479401Y-84779419D01*
X139479401Y-84779419D02*
X139717496Y-84779419D01*
X142196000Y-83002000D02*
X142196000Y-85669000D01*
X149816000Y-83002000D02*
X138894000Y-83002000D01*
X146260000Y-83002000D02*
X146260000Y-85669000D01*
X148924734Y-87525800D02*
X148781877Y-87573419D01*
X148781877Y-87573419D02*
X148543782Y-87573419D01*
X148543782Y-87573419D02*
X148448544Y-87525800D01*
X148448544Y-87525800D02*
X148400925Y-87478180D01*
X148400925Y-87478180D02*
X148353306Y-87382942D01*
X148353306Y-87382942D02*
X148353306Y-87287704D01*
X148353306Y-87287704D02*
X148400925Y-87192466D01*
X148400925Y-87192466D02*
X148448544Y-87144847D01*
X148448544Y-87144847D02*
X148543782Y-87097228D01*
X148543782Y-87097228D02*
X148734258Y-87049609D01*
X148734258Y-87049609D02*
X148829496Y-87001990D01*
X148829496Y-87001990D02*
X148877115Y-86954371D01*
X148877115Y-86954371D02*
X148924734Y-86859133D01*
X148924734Y-86859133D02*
X148924734Y-86763895D01*
X148924734Y-86763895D02*
X148877115Y-86668657D01*
X148877115Y-86668657D02*
X148829496Y-86621038D01*
X148829496Y-86621038D02*
X148734258Y-86573419D01*
X148734258Y-86573419D02*
X148496163Y-86573419D01*
X148496163Y-86573419D02*
X148353306Y-86621038D01*
X148067591Y-86573419D02*
X147734258Y-87573419D01*
X147734258Y-87573419D02*
X147400925Y-86573419D01*
X146877115Y-86573419D02*
X146781877Y-86573419D01*
X146781877Y-86573419D02*
X146686639Y-86621038D01*
X146686639Y-86621038D02*
X146639020Y-86668657D01*
X146639020Y-86668657D02*
X146591401Y-86763895D01*
X146591401Y-86763895D02*
X146543782Y-86954371D01*
X146543782Y-86954371D02*
X146543782Y-87192466D01*
X146543782Y-87192466D02*
X146591401Y-87382942D01*
X146591401Y-87382942D02*
X146639020Y-87478180D01*
X146639020Y-87478180D02*
X146686639Y-87525800D01*
X146686639Y-87525800D02*
X146781877Y-87573419D01*
X146781877Y-87573419D02*
X146877115Y-87573419D01*
X146877115Y-87573419D02*
X146972353Y-87525800D01*
X146972353Y-87525800D02*
X147019972Y-87478180D01*
X147019972Y-87478180D02*
X147067591Y-87382942D01*
X147067591Y-87382942D02*
X147115210Y-87192466D01*
X147115210Y-87192466D02*
X147115210Y-86954371D01*
X147115210Y-86954371D02*
X147067591Y-86763895D01*
X147067591Y-86763895D02*
X147019972Y-86668657D01*
X147019972Y-86668657D02*
X146972353Y-86621038D01*
X146972353Y-86621038D02*
X146877115Y-86573419D01*
X145956115Y-87065466D02*
X145194211Y-87065466D01*
X145575163Y-87446419D02*
X145575163Y-86684514D01*
X144384687Y-86922609D02*
X144241830Y-86970228D01*
X144241830Y-86970228D02*
X144194211Y-87017847D01*
X144194211Y-87017847D02*
X144146592Y-87113085D01*
X144146592Y-87113085D02*
X144146592Y-87255942D01*
X144146592Y-87255942D02*
X144194211Y-87351180D01*
X144194211Y-87351180D02*
X144241830Y-87398800D01*
X144241830Y-87398800D02*
X144337068Y-87446419D01*
X144337068Y-87446419D02*
X144718020Y-87446419D01*
X144718020Y-87446419D02*
X144718020Y-86446419D01*
X144718020Y-86446419D02*
X144384687Y-86446419D01*
X144384687Y-86446419D02*
X144289449Y-86494038D01*
X144289449Y-86494038D02*
X144241830Y-86541657D01*
X144241830Y-86541657D02*
X144194211Y-86636895D01*
X144194211Y-86636895D02*
X144194211Y-86732133D01*
X144194211Y-86732133D02*
X144241830Y-86827371D01*
X144241830Y-86827371D02*
X144289449Y-86874990D01*
X144289449Y-86874990D02*
X144384687Y-86922609D01*
X144384687Y-86922609D02*
X144718020Y-86922609D01*
X143765639Y-87160704D02*
X143289449Y-87160704D01*
X143860877Y-87446419D02*
X143527544Y-86446419D01*
X143527544Y-86446419D02*
X143194211Y-87446419D01*
X143003734Y-86446419D02*
X142432306Y-86446419D01*
X142718020Y-87446419D02*
X142718020Y-86446419D01*
X141241306Y-86494038D02*
X141336544Y-86446419D01*
X141336544Y-86446419D02*
X141479401Y-86446419D01*
X141479401Y-86446419D02*
X141622258Y-86494038D01*
X141622258Y-86494038D02*
X141717496Y-86589276D01*
X141717496Y-86589276D02*
X141765115Y-86684514D01*
X141765115Y-86684514D02*
X141812734Y-86874990D01*
X141812734Y-86874990D02*
X141812734Y-87017847D01*
X141812734Y-87017847D02*
X141765115Y-87208323D01*
X141765115Y-87208323D02*
X141717496Y-87303561D01*
X141717496Y-87303561D02*
X141622258Y-87398800D01*
X141622258Y-87398800D02*
X141479401Y-87446419D01*
X141479401Y-87446419D02*
X141384163Y-87446419D01*
X141384163Y-87446419D02*
X141241306Y-87398800D01*
X141241306Y-87398800D02*
X141193687Y-87351180D01*
X141193687Y-87351180D02*
X141193687Y-87017847D01*
X141193687Y-87017847D02*
X141384163Y-87017847D01*
X140765115Y-87446419D02*
X140765115Y-86446419D01*
X140765115Y-86446419D02*
X140193687Y-87446419D01*
X140193687Y-87446419D02*
X140193687Y-86446419D01*
X139717496Y-87446419D02*
X139717496Y-86446419D01*
X139717496Y-86446419D02*
X139479401Y-86446419D01*
X139479401Y-86446419D02*
X139336544Y-86494038D01*
X139336544Y-86494038D02*
X139241306Y-86589276D01*
X139241306Y-86589276D02*
X139193687Y-86684514D01*
X139193687Y-86684514D02*
X139146068Y-86874990D01*
X139146068Y-86874990D02*
X139146068Y-87017847D01*
X139146068Y-87017847D02*
X139193687Y-87208323D01*
X139193687Y-87208323D02*
X139241306Y-87303561D01*
X139241306Y-87303561D02*
X139336544Y-87398800D01*
X139336544Y-87398800D02*
X139479401Y-87446419D01*
X139479401Y-87446419D02*
X139717496Y-87446419D01*
X142196000Y-85669000D02*
X142196000Y-88336000D01*
X146260000Y-85669000D02*
X146260000Y-88336000D01*
X149816000Y-88336000D02*
X149816000Y-85669000D01*
X138894000Y-88336000D02*
X149816000Y-88336000D01*
X138894000Y-85669000D02*
X138894000Y-88336000D01*
X149816000Y-85669000D02*
X138894000Y-85669000D01*
X125761000Y-86618000D02*
X124999000Y-87126000D01*
X128555000Y-86618000D02*
X125761000Y-86618000D01*
X129952000Y-86999000D02*
X128555000Y-86618000D01*
X133508000Y-86999000D02*
X129952000Y-86999000D01*
X133508000Y-88904000D02*
X128428000Y-88904000D01*
X135363115Y-87547475D02*
X135363115Y-86547475D01*
X135363115Y-86547475D02*
X135125020Y-86547475D01*
X135125020Y-86547475D02*
X134982163Y-86595094D01*
X134982163Y-86595094D02*
X134886925Y-86690332D01*
X134886925Y-86690332D02*
X134839306Y-86785570D01*
X134839306Y-86785570D02*
X134791687Y-86976046D01*
X134791687Y-86976046D02*
X134791687Y-87118903D01*
X134791687Y-87118903D02*
X134839306Y-87309379D01*
X134839306Y-87309379D02*
X134886925Y-87404617D01*
X134886925Y-87404617D02*
X134982163Y-87499856D01*
X134982163Y-87499856D02*
X135125020Y-87547475D01*
X135125020Y-87547475D02*
X135363115Y-87547475D01*
X133886925Y-86547475D02*
X134363115Y-86547475D01*
X134363115Y-86547475D02*
X134410734Y-87023665D01*
X134410734Y-87023665D02*
X134363115Y-86976046D01*
X134363115Y-86976046D02*
X134267877Y-86928427D01*
X134267877Y-86928427D02*
X134029782Y-86928427D01*
X134029782Y-86928427D02*
X133934544Y-86976046D01*
X133934544Y-86976046D02*
X133886925Y-87023665D01*
X133886925Y-87023665D02*
X133839306Y-87118903D01*
X133839306Y-87118903D02*
X133839306Y-87356998D01*
X133839306Y-87356998D02*
X133886925Y-87452236D01*
X133886925Y-87452236D02*
X133934544Y-87499856D01*
X133934544Y-87499856D02*
X134029782Y-87547475D01*
X134029782Y-87547475D02*
X134267877Y-87547475D01*
X134267877Y-87547475D02*
X134363115Y-87499856D01*
X134363115Y-87499856D02*
X134410734Y-87452236D01*
X135363115Y-89157419D02*
X135363115Y-88157419D01*
X135363115Y-88157419D02*
X135125020Y-88157419D01*
X135125020Y-88157419D02*
X134982163Y-88205038D01*
X134982163Y-88205038D02*
X134886925Y-88300276D01*
X134886925Y-88300276D02*
X134839306Y-88395514D01*
X134839306Y-88395514D02*
X134791687Y-88585990D01*
X134791687Y-88585990D02*
X134791687Y-88728847D01*
X134791687Y-88728847D02*
X134839306Y-88919323D01*
X134839306Y-88919323D02*
X134886925Y-89014561D01*
X134886925Y-89014561D02*
X134982163Y-89109800D01*
X134982163Y-89109800D02*
X135125020Y-89157419D01*
X135125020Y-89157419D02*
X135363115Y-89157419D01*
X133934544Y-88157419D02*
X134125020Y-88157419D01*
X134125020Y-88157419D02*
X134220258Y-88205038D01*
X134220258Y-88205038D02*
X134267877Y-88252657D01*
X134267877Y-88252657D02*
X134363115Y-88395514D01*
X134363115Y-88395514D02*
X134410734Y-88585990D01*
X134410734Y-88585990D02*
X134410734Y-88966942D01*
X134410734Y-88966942D02*
X134363115Y-89062180D01*
X134363115Y-89062180D02*
X134315496Y-89109800D01*
X134315496Y-89109800D02*
X134220258Y-89157419D01*
X134220258Y-89157419D02*
X134029782Y-89157419D01*
X134029782Y-89157419D02*
X133934544Y-89109800D01*
X133934544Y-89109800D02*
X133886925Y-89062180D01*
X133886925Y-89062180D02*
X133839306Y-88966942D01*
X133839306Y-88966942D02*
X133839306Y-88728847D01*
X133839306Y-88728847D02*
X133886925Y-88633609D01*
X133886925Y-88633609D02*
X133934544Y-88585990D01*
X133934544Y-88585990D02*
X134029782Y-88538371D01*
X134029782Y-88538371D02*
X134220258Y-88538371D01*
X134220258Y-88538371D02*
X134315496Y-88585990D01*
X134315496Y-88585990D02*
X134363115Y-88633609D01*
X134363115Y-88633609D02*
X134410734Y-88728847D01*
X121697000Y-85983000D02*
X121316000Y-85602000D01*
X122459000Y-85983000D02*
X121697000Y-85983000D01*
X123821972Y-78838752D02*
X123441020Y-78838752D01*
X123679115Y-78505419D02*
X123679115Y-79362561D01*
X123679115Y-79362561D02*
X123631496Y-79457800D01*
X123631496Y-79457800D02*
X123536258Y-79505419D01*
X123536258Y-79505419D02*
X123441020Y-79505419D01*
X122964829Y-79505419D02*
X123060067Y-79457800D01*
X123060067Y-79457800D02*
X123107686Y-79410180D01*
X123107686Y-79410180D02*
X123155305Y-79314942D01*
X123155305Y-79314942D02*
X123155305Y-79029228D01*
X123155305Y-79029228D02*
X123107686Y-78933990D01*
X123107686Y-78933990D02*
X123060067Y-78886371D01*
X123060067Y-78886371D02*
X122964829Y-78838752D01*
X122964829Y-78838752D02*
X122821972Y-78838752D01*
X122821972Y-78838752D02*
X122726734Y-78886371D01*
X122726734Y-78886371D02*
X122679115Y-78933990D01*
X122679115Y-78933990D02*
X122631496Y-79029228D01*
X122631496Y-79029228D02*
X122631496Y-79314942D01*
X122631496Y-79314942D02*
X122679115Y-79410180D01*
X122679115Y-79410180D02*
X122726734Y-79457800D01*
X122726734Y-79457800D02*
X122821972Y-79505419D01*
X122821972Y-79505419D02*
X122964829Y-79505419D01*
X121774353Y-78838752D02*
X121774353Y-79505419D01*
X122202924Y-78838752D02*
X122202924Y-79362561D01*
X122202924Y-79362561D02*
X122155305Y-79457800D01*
X122155305Y-79457800D02*
X122060067Y-79505419D01*
X122060067Y-79505419D02*
X121917210Y-79505419D01*
X121917210Y-79505419D02*
X121821972Y-79457800D01*
X121821972Y-79457800D02*
X121774353Y-79410180D01*
X120869591Y-79457800D02*
X120964829Y-79505419D01*
X120964829Y-79505419D02*
X121155305Y-79505419D01*
X121155305Y-79505419D02*
X121250543Y-79457800D01*
X121250543Y-79457800D02*
X121298162Y-79410180D01*
X121298162Y-79410180D02*
X121345781Y-79314942D01*
X121345781Y-79314942D02*
X121345781Y-79029228D01*
X121345781Y-79029228D02*
X121298162Y-78933990D01*
X121298162Y-78933990D02*
X121250543Y-78886371D01*
X121250543Y-78886371D02*
X121155305Y-78838752D01*
X121155305Y-78838752D02*
X120964829Y-78838752D01*
X120964829Y-78838752D02*
X120869591Y-78886371D01*
X120441019Y-79505419D02*
X120441019Y-78505419D01*
X120012448Y-79505419D02*
X120012448Y-78981609D01*
X120012448Y-78981609D02*
X120060067Y-78886371D01*
X120060067Y-78886371D02*
X120155305Y-78838752D01*
X120155305Y-78838752D02*
X120298162Y-78838752D01*
X120298162Y-78838752D02*
X120393400Y-78886371D01*
X120393400Y-78886371D02*
X120441019Y-78933990D01*
X128936000Y-72902000D02*
X131984000Y-72902000D01*
X126523000Y-74934000D02*
X128936000Y-72902000D01*
X124491000Y-74934000D02*
X126523000Y-74934000D01*
X131603000Y-72013000D02*
X134016000Y-71251000D01*
X127793000Y-72013000D02*
X131603000Y-72013000D01*
X128809000Y-74680000D02*
X126015000Y-75950000D01*
X124491000Y-74934000D02*
X122078000Y-74426000D01*
X127793000Y-72013000D02*
X125634000Y-73156000D01*
X137823734Y-73021856D02*
X137728496Y-73069475D01*
X137728496Y-73069475D02*
X137538020Y-73069475D01*
X137538020Y-73069475D02*
X137442782Y-73021856D01*
X137442782Y-73021856D02*
X137395163Y-72926617D01*
X137395163Y-72926617D02*
X137395163Y-72878998D01*
X137395163Y-72878998D02*
X137442782Y-72783760D01*
X137442782Y-72783760D02*
X137538020Y-72736141D01*
X137538020Y-72736141D02*
X137680877Y-72736141D01*
X137680877Y-72736141D02*
X137776115Y-72688522D01*
X137776115Y-72688522D02*
X137823734Y-72593284D01*
X137823734Y-72593284D02*
X137823734Y-72545665D01*
X137823734Y-72545665D02*
X137776115Y-72450427D01*
X137776115Y-72450427D02*
X137680877Y-72402808D01*
X137680877Y-72402808D02*
X137538020Y-72402808D01*
X137538020Y-72402808D02*
X137442782Y-72450427D01*
X136585639Y-73021856D02*
X136680877Y-73069475D01*
X136680877Y-73069475D02*
X136871353Y-73069475D01*
X136871353Y-73069475D02*
X136966591Y-73021856D01*
X136966591Y-73021856D02*
X137014210Y-72926617D01*
X137014210Y-72926617D02*
X137014210Y-72545665D01*
X137014210Y-72545665D02*
X136966591Y-72450427D01*
X136966591Y-72450427D02*
X136871353Y-72402808D01*
X136871353Y-72402808D02*
X136680877Y-72402808D01*
X136680877Y-72402808D02*
X136585639Y-72450427D01*
X136585639Y-72450427D02*
X136538020Y-72545665D01*
X136538020Y-72545665D02*
X136538020Y-72640903D01*
X136538020Y-72640903D02*
X137014210Y-72736141D01*
X136109448Y-72402808D02*
X136109448Y-73069475D01*
X136109448Y-72498046D02*
X136061829Y-72450427D01*
X136061829Y-72450427D02*
X135966591Y-72402808D01*
X135966591Y-72402808D02*
X135823734Y-72402808D01*
X135823734Y-72402808D02*
X135728496Y-72450427D01*
X135728496Y-72450427D02*
X135680877Y-72545665D01*
X135680877Y-72545665D02*
X135680877Y-73069475D01*
X135252305Y-73021856D02*
X135157067Y-73069475D01*
X135157067Y-73069475D02*
X134966591Y-73069475D01*
X134966591Y-73069475D02*
X134871353Y-73021856D01*
X134871353Y-73021856D02*
X134823734Y-72926617D01*
X134823734Y-72926617D02*
X134823734Y-72878998D01*
X134823734Y-72878998D02*
X134871353Y-72783760D01*
X134871353Y-72783760D02*
X134966591Y-72736141D01*
X134966591Y-72736141D02*
X135109448Y-72736141D01*
X135109448Y-72736141D02*
X135204686Y-72688522D01*
X135204686Y-72688522D02*
X135252305Y-72593284D01*
X135252305Y-72593284D02*
X135252305Y-72545665D01*
X135252305Y-72545665D02*
X135204686Y-72450427D01*
X135204686Y-72450427D02*
X135109448Y-72402808D01*
X135109448Y-72402808D02*
X134966591Y-72402808D01*
X134966591Y-72402808D02*
X134871353Y-72450427D01*
X134252305Y-73069475D02*
X134347543Y-73021856D01*
X134347543Y-73021856D02*
X134395162Y-72974236D01*
X134395162Y-72974236D02*
X134442781Y-72878998D01*
X134442781Y-72878998D02*
X134442781Y-72593284D01*
X134442781Y-72593284D02*
X134395162Y-72498046D01*
X134395162Y-72498046D02*
X134347543Y-72450427D01*
X134347543Y-72450427D02*
X134252305Y-72402808D01*
X134252305Y-72402808D02*
X134109448Y-72402808D01*
X134109448Y-72402808D02*
X134014210Y-72450427D01*
X134014210Y-72450427D02*
X133966591Y-72498046D01*
X133966591Y-72498046D02*
X133918972Y-72593284D01*
X133918972Y-72593284D02*
X133918972Y-72878998D01*
X133918972Y-72878998D02*
X133966591Y-72974236D01*
X133966591Y-72974236D02*
X134014210Y-73021856D01*
X134014210Y-73021856D02*
X134109448Y-73069475D01*
X134109448Y-73069475D02*
X134252305Y-73069475D01*
X133490400Y-73069475D02*
X133490400Y-72402808D01*
X133490400Y-72593284D02*
X133442781Y-72498046D01*
X133442781Y-72498046D02*
X133395162Y-72450427D01*
X133395162Y-72450427D02*
X133299924Y-72402808D01*
X133299924Y-72402808D02*
X133204686Y-72402808D01*
X132347543Y-73069475D02*
X132918971Y-73069475D01*
X132633257Y-73069475D02*
X132633257Y-72069475D01*
X132633257Y-72069475D02*
X132728495Y-72212332D01*
X132728495Y-72212332D02*
X132823733Y-72307570D01*
X132823733Y-72307570D02*
X132918971Y-72355189D01*
X137315734Y-74495056D02*
X137220496Y-74542675D01*
X137220496Y-74542675D02*
X137030020Y-74542675D01*
X137030020Y-74542675D02*
X136934782Y-74495056D01*
X136934782Y-74495056D02*
X136887163Y-74399817D01*
X136887163Y-74399817D02*
X136887163Y-74352198D01*
X136887163Y-74352198D02*
X136934782Y-74256960D01*
X136934782Y-74256960D02*
X137030020Y-74209341D01*
X137030020Y-74209341D02*
X137172877Y-74209341D01*
X137172877Y-74209341D02*
X137268115Y-74161722D01*
X137268115Y-74161722D02*
X137315734Y-74066484D01*
X137315734Y-74066484D02*
X137315734Y-74018865D01*
X137315734Y-74018865D02*
X137268115Y-73923627D01*
X137268115Y-73923627D02*
X137172877Y-73876008D01*
X137172877Y-73876008D02*
X137030020Y-73876008D01*
X137030020Y-73876008D02*
X136934782Y-73923627D01*
X136077639Y-74495056D02*
X136172877Y-74542675D01*
X136172877Y-74542675D02*
X136363353Y-74542675D01*
X136363353Y-74542675D02*
X136458591Y-74495056D01*
X136458591Y-74495056D02*
X136506210Y-74399817D01*
X136506210Y-74399817D02*
X136506210Y-74018865D01*
X136506210Y-74018865D02*
X136458591Y-73923627D01*
X136458591Y-73923627D02*
X136363353Y-73876008D01*
X136363353Y-73876008D02*
X136172877Y-73876008D01*
X136172877Y-73876008D02*
X136077639Y-73923627D01*
X136077639Y-73923627D02*
X136030020Y-74018865D01*
X136030020Y-74018865D02*
X136030020Y-74114103D01*
X136030020Y-74114103D02*
X136506210Y-74209341D01*
X135601448Y-73876008D02*
X135601448Y-74542675D01*
X135601448Y-73971246D02*
X135553829Y-73923627D01*
X135553829Y-73923627D02*
X135458591Y-73876008D01*
X135458591Y-73876008D02*
X135315734Y-73876008D01*
X135315734Y-73876008D02*
X135220496Y-73923627D01*
X135220496Y-73923627D02*
X135172877Y-74018865D01*
X135172877Y-74018865D02*
X135172877Y-74542675D01*
X134744305Y-74495056D02*
X134649067Y-74542675D01*
X134649067Y-74542675D02*
X134458591Y-74542675D01*
X134458591Y-74542675D02*
X134363353Y-74495056D01*
X134363353Y-74495056D02*
X134315734Y-74399817D01*
X134315734Y-74399817D02*
X134315734Y-74352198D01*
X134315734Y-74352198D02*
X134363353Y-74256960D01*
X134363353Y-74256960D02*
X134458591Y-74209341D01*
X134458591Y-74209341D02*
X134601448Y-74209341D01*
X134601448Y-74209341D02*
X134696686Y-74161722D01*
X134696686Y-74161722D02*
X134744305Y-74066484D01*
X134744305Y-74066484D02*
X134744305Y-74018865D01*
X134744305Y-74018865D02*
X134696686Y-73923627D01*
X134696686Y-73923627D02*
X134601448Y-73876008D01*
X134601448Y-73876008D02*
X134458591Y-73876008D01*
X134458591Y-73876008D02*
X134363353Y-73923627D01*
X133744305Y-74542675D02*
X133839543Y-74495056D01*
X133839543Y-74495056D02*
X133887162Y-74447436D01*
X133887162Y-74447436D02*
X133934781Y-74352198D01*
X133934781Y-74352198D02*
X133934781Y-74066484D01*
X133934781Y-74066484D02*
X133887162Y-73971246D01*
X133887162Y-73971246D02*
X133839543Y-73923627D01*
X133839543Y-73923627D02*
X133744305Y-73876008D01*
X133744305Y-73876008D02*
X133601448Y-73876008D01*
X133601448Y-73876008D02*
X133506210Y-73923627D01*
X133506210Y-73923627D02*
X133458591Y-73971246D01*
X133458591Y-73971246D02*
X133410972Y-74066484D01*
X133410972Y-74066484D02*
X133410972Y-74352198D01*
X133410972Y-74352198D02*
X133458591Y-74447436D01*
X133458591Y-74447436D02*
X133506210Y-74495056D01*
X133506210Y-74495056D02*
X133601448Y-74542675D01*
X133601448Y-74542675D02*
X133744305Y-74542675D01*
X132982400Y-74542675D02*
X132982400Y-73876008D01*
X132982400Y-74066484D02*
X132934781Y-73971246D01*
X132934781Y-73971246D02*
X132887162Y-73923627D01*
X132887162Y-73923627D02*
X132791924Y-73876008D01*
X132791924Y-73876008D02*
X132696686Y-73876008D01*
X132363352Y-74161722D02*
X131601448Y-74161722D01*
X131982400Y-74542675D02*
X131982400Y-73780770D01*
X131220495Y-73542675D02*
X130601448Y-73542675D01*
X130601448Y-73542675D02*
X130934781Y-73923627D01*
X130934781Y-73923627D02*
X130791924Y-73923627D01*
X130791924Y-73923627D02*
X130696686Y-73971246D01*
X130696686Y-73971246D02*
X130649067Y-74018865D01*
X130649067Y-74018865D02*
X130601448Y-74114103D01*
X130601448Y-74114103D02*
X130601448Y-74352198D01*
X130601448Y-74352198D02*
X130649067Y-74447436D01*
X130649067Y-74447436D02*
X130696686Y-74495056D01*
X130696686Y-74495056D02*
X130791924Y-74542675D01*
X130791924Y-74542675D02*
X131077638Y-74542675D01*
X131077638Y-74542675D02*
X131172876Y-74495056D01*
X131172876Y-74495056D02*
X131220495Y-74447436D01*
X130172876Y-74447436D02*
X130125257Y-74495056D01*
X130125257Y-74495056D02*
X130172876Y-74542675D01*
X130172876Y-74542675D02*
X130220495Y-74495056D01*
X130220495Y-74495056D02*
X130172876Y-74447436D01*
X130172876Y-74447436D02*
X130172876Y-74542675D01*
X129791924Y-73542675D02*
X129172877Y-73542675D01*
X129172877Y-73542675D02*
X129506210Y-73923627D01*
X129506210Y-73923627D02*
X129363353Y-73923627D01*
X129363353Y-73923627D02*
X129268115Y-73971246D01*
X129268115Y-73971246D02*
X129220496Y-74018865D01*
X129220496Y-74018865D02*
X129172877Y-74114103D01*
X129172877Y-74114103D02*
X129172877Y-74352198D01*
X129172877Y-74352198D02*
X129220496Y-74447436D01*
X129220496Y-74447436D02*
X129268115Y-74495056D01*
X129268115Y-74495056D02*
X129363353Y-74542675D01*
X129363353Y-74542675D02*
X129649067Y-74542675D01*
X129649067Y-74542675D02*
X129744305Y-74495056D01*
X129744305Y-74495056D02*
X129791924Y-74447436D01*
X128839543Y-73876008D02*
X128601448Y-74542675D01*
X128601448Y-74542675D02*
X128363353Y-73876008D01*
X140897134Y-71482200D02*
X140801896Y-71529819D01*
X140801896Y-71529819D02*
X140611420Y-71529819D01*
X140611420Y-71529819D02*
X140516182Y-71482200D01*
X140516182Y-71482200D02*
X140468563Y-71386961D01*
X140468563Y-71386961D02*
X140468563Y-71339342D01*
X140468563Y-71339342D02*
X140516182Y-71244104D01*
X140516182Y-71244104D02*
X140611420Y-71196485D01*
X140611420Y-71196485D02*
X140754277Y-71196485D01*
X140754277Y-71196485D02*
X140849515Y-71148866D01*
X140849515Y-71148866D02*
X140897134Y-71053628D01*
X140897134Y-71053628D02*
X140897134Y-71006009D01*
X140897134Y-71006009D02*
X140849515Y-70910771D01*
X140849515Y-70910771D02*
X140754277Y-70863152D01*
X140754277Y-70863152D02*
X140611420Y-70863152D01*
X140611420Y-70863152D02*
X140516182Y-70910771D01*
X139659039Y-71482200D02*
X139754277Y-71529819D01*
X139754277Y-71529819D02*
X139944753Y-71529819D01*
X139944753Y-71529819D02*
X140039991Y-71482200D01*
X140039991Y-71482200D02*
X140087610Y-71386961D01*
X140087610Y-71386961D02*
X140087610Y-71006009D01*
X140087610Y-71006009D02*
X140039991Y-70910771D01*
X140039991Y-70910771D02*
X139944753Y-70863152D01*
X139944753Y-70863152D02*
X139754277Y-70863152D01*
X139754277Y-70863152D02*
X139659039Y-70910771D01*
X139659039Y-70910771D02*
X139611420Y-71006009D01*
X139611420Y-71006009D02*
X139611420Y-71101247D01*
X139611420Y-71101247D02*
X140087610Y-71196485D01*
X139182848Y-70863152D02*
X139182848Y-71529819D01*
X139182848Y-70958390D02*
X139135229Y-70910771D01*
X139135229Y-70910771D02*
X139039991Y-70863152D01*
X139039991Y-70863152D02*
X138897134Y-70863152D01*
X138897134Y-70863152D02*
X138801896Y-70910771D01*
X138801896Y-70910771D02*
X138754277Y-71006009D01*
X138754277Y-71006009D02*
X138754277Y-71529819D01*
X138325705Y-71482200D02*
X138230467Y-71529819D01*
X138230467Y-71529819D02*
X138039991Y-71529819D01*
X138039991Y-71529819D02*
X137944753Y-71482200D01*
X137944753Y-71482200D02*
X137897134Y-71386961D01*
X137897134Y-71386961D02*
X137897134Y-71339342D01*
X137897134Y-71339342D02*
X137944753Y-71244104D01*
X137944753Y-71244104D02*
X138039991Y-71196485D01*
X138039991Y-71196485D02*
X138182848Y-71196485D01*
X138182848Y-71196485D02*
X138278086Y-71148866D01*
X138278086Y-71148866D02*
X138325705Y-71053628D01*
X138325705Y-71053628D02*
X138325705Y-71006009D01*
X138325705Y-71006009D02*
X138278086Y-70910771D01*
X138278086Y-70910771D02*
X138182848Y-70863152D01*
X138182848Y-70863152D02*
X138039991Y-70863152D01*
X138039991Y-70863152D02*
X137944753Y-70910771D01*
X137325705Y-71529819D02*
X137420943Y-71482200D01*
X137420943Y-71482200D02*
X137468562Y-71434580D01*
X137468562Y-71434580D02*
X137516181Y-71339342D01*
X137516181Y-71339342D02*
X137516181Y-71053628D01*
X137516181Y-71053628D02*
X137468562Y-70958390D01*
X137468562Y-70958390D02*
X137420943Y-70910771D01*
X137420943Y-70910771D02*
X137325705Y-70863152D01*
X137325705Y-70863152D02*
X137182848Y-70863152D01*
X137182848Y-70863152D02*
X137087610Y-70910771D01*
X137087610Y-70910771D02*
X137039991Y-70958390D01*
X137039991Y-70958390D02*
X136992372Y-71053628D01*
X136992372Y-71053628D02*
X136992372Y-71339342D01*
X136992372Y-71339342D02*
X137039991Y-71434580D01*
X137039991Y-71434580D02*
X137087610Y-71482200D01*
X137087610Y-71482200D02*
X137182848Y-71529819D01*
X137182848Y-71529819D02*
X137325705Y-71529819D01*
X136563800Y-71529819D02*
X136563800Y-70863152D01*
X136563800Y-71053628D02*
X136516181Y-70958390D01*
X136516181Y-70958390D02*
X136468562Y-70910771D01*
X136468562Y-70910771D02*
X136373324Y-70863152D01*
X136373324Y-70863152D02*
X136278086Y-70863152D01*
X135754276Y-70529819D02*
X135659038Y-70529819D01*
X135659038Y-70529819D02*
X135563800Y-70577438D01*
X135563800Y-70577438D02*
X135516181Y-70625057D01*
X135516181Y-70625057D02*
X135468562Y-70720295D01*
X135468562Y-70720295D02*
X135420943Y-70910771D01*
X135420943Y-70910771D02*
X135420943Y-71148866D01*
X135420943Y-71148866D02*
X135468562Y-71339342D01*
X135468562Y-71339342D02*
X135516181Y-71434580D01*
X135516181Y-71434580D02*
X135563800Y-71482200D01*
X135563800Y-71482200D02*
X135659038Y-71529819D01*
X135659038Y-71529819D02*
X135754276Y-71529819D01*
X135754276Y-71529819D02*
X135849514Y-71482200D01*
X135849514Y-71482200D02*
X135897133Y-71434580D01*
X135897133Y-71434580D02*
X135944752Y-71339342D01*
X135944752Y-71339342D02*
X135992371Y-71148866D01*
X135992371Y-71148866D02*
X135992371Y-70910771D01*
X135992371Y-70910771D02*
X135944752Y-70720295D01*
X135944752Y-70720295D02*
X135897133Y-70625057D01*
X135897133Y-70625057D02*
X135849514Y-70577438D01*
X135849514Y-70577438D02*
X135754276Y-70529819D01*
X133759734Y-71075800D02*
X133664496Y-71123419D01*
X133664496Y-71123419D02*
X133474020Y-71123419D01*
X133474020Y-71123419D02*
X133378782Y-71075800D01*
X133378782Y-71075800D02*
X133331163Y-70980561D01*
X133331163Y-70980561D02*
X133331163Y-70932942D01*
X133331163Y-70932942D02*
X133378782Y-70837704D01*
X133378782Y-70837704D02*
X133474020Y-70790085D01*
X133474020Y-70790085D02*
X133616877Y-70790085D01*
X133616877Y-70790085D02*
X133712115Y-70742466D01*
X133712115Y-70742466D02*
X133759734Y-70647228D01*
X133759734Y-70647228D02*
X133759734Y-70599609D01*
X133759734Y-70599609D02*
X133712115Y-70504371D01*
X133712115Y-70504371D02*
X133616877Y-70456752D01*
X133616877Y-70456752D02*
X133474020Y-70456752D01*
X133474020Y-70456752D02*
X133378782Y-70504371D01*
X132521639Y-71075800D02*
X132616877Y-71123419D01*
X132616877Y-71123419D02*
X132807353Y-71123419D01*
X132807353Y-71123419D02*
X132902591Y-71075800D01*
X132902591Y-71075800D02*
X132950210Y-70980561D01*
X132950210Y-70980561D02*
X132950210Y-70599609D01*
X132950210Y-70599609D02*
X132902591Y-70504371D01*
X132902591Y-70504371D02*
X132807353Y-70456752D01*
X132807353Y-70456752D02*
X132616877Y-70456752D01*
X132616877Y-70456752D02*
X132521639Y-70504371D01*
X132521639Y-70504371D02*
X132474020Y-70599609D01*
X132474020Y-70599609D02*
X132474020Y-70694847D01*
X132474020Y-70694847D02*
X132950210Y-70790085D01*
X132045448Y-70456752D02*
X132045448Y-71123419D01*
X132045448Y-70551990D02*
X131997829Y-70504371D01*
X131997829Y-70504371D02*
X131902591Y-70456752D01*
X131902591Y-70456752D02*
X131759734Y-70456752D01*
X131759734Y-70456752D02*
X131664496Y-70504371D01*
X131664496Y-70504371D02*
X131616877Y-70599609D01*
X131616877Y-70599609D02*
X131616877Y-71123419D01*
X131188305Y-71075800D02*
X131093067Y-71123419D01*
X131093067Y-71123419D02*
X130902591Y-71123419D01*
X130902591Y-71123419D02*
X130807353Y-71075800D01*
X130807353Y-71075800D02*
X130759734Y-70980561D01*
X130759734Y-70980561D02*
X130759734Y-70932942D01*
X130759734Y-70932942D02*
X130807353Y-70837704D01*
X130807353Y-70837704D02*
X130902591Y-70790085D01*
X130902591Y-70790085D02*
X131045448Y-70790085D01*
X131045448Y-70790085D02*
X131140686Y-70742466D01*
X131140686Y-70742466D02*
X131188305Y-70647228D01*
X131188305Y-70647228D02*
X131188305Y-70599609D01*
X131188305Y-70599609D02*
X131140686Y-70504371D01*
X131140686Y-70504371D02*
X131045448Y-70456752D01*
X131045448Y-70456752D02*
X130902591Y-70456752D01*
X130902591Y-70456752D02*
X130807353Y-70504371D01*
X130188305Y-71123419D02*
X130283543Y-71075800D01*
X130283543Y-71075800D02*
X130331162Y-71028180D01*
X130331162Y-71028180D02*
X130378781Y-70932942D01*
X130378781Y-70932942D02*
X130378781Y-70647228D01*
X130378781Y-70647228D02*
X130331162Y-70551990D01*
X130331162Y-70551990D02*
X130283543Y-70504371D01*
X130283543Y-70504371D02*
X130188305Y-70456752D01*
X130188305Y-70456752D02*
X130045448Y-70456752D01*
X130045448Y-70456752D02*
X129950210Y-70504371D01*
X129950210Y-70504371D02*
X129902591Y-70551990D01*
X129902591Y-70551990D02*
X129854972Y-70647228D01*
X129854972Y-70647228D02*
X129854972Y-70932942D01*
X129854972Y-70932942D02*
X129902591Y-71028180D01*
X129902591Y-71028180D02*
X129950210Y-71075800D01*
X129950210Y-71075800D02*
X130045448Y-71123419D01*
X130045448Y-71123419D02*
X130188305Y-71123419D01*
X129426400Y-71123419D02*
X129426400Y-70456752D01*
X129426400Y-70647228D02*
X129378781Y-70551990D01*
X129378781Y-70551990D02*
X129331162Y-70504371D01*
X129331162Y-70504371D02*
X129235924Y-70456752D01*
X129235924Y-70456752D02*
X129140686Y-70456752D01*
X127616876Y-70456752D02*
X127616876Y-71266276D01*
X127616876Y-71266276D02*
X127664495Y-71361514D01*
X127664495Y-71361514D02*
X127712114Y-71409133D01*
X127712114Y-71409133D02*
X127807352Y-71456752D01*
X127807352Y-71456752D02*
X127950209Y-71456752D01*
X127950209Y-71456752D02*
X128045447Y-71409133D01*
X127616876Y-71075800D02*
X127712114Y-71123419D01*
X127712114Y-71123419D02*
X127902590Y-71123419D01*
X127902590Y-71123419D02*
X127997828Y-71075800D01*
X127997828Y-71075800D02*
X128045447Y-71028180D01*
X128045447Y-71028180D02*
X128093066Y-70932942D01*
X128093066Y-70932942D02*
X128093066Y-70647228D01*
X128093066Y-70647228D02*
X128045447Y-70551990D01*
X128045447Y-70551990D02*
X127997828Y-70504371D01*
X127997828Y-70504371D02*
X127902590Y-70456752D01*
X127902590Y-70456752D02*
X127712114Y-70456752D01*
X127712114Y-70456752D02*
X127616876Y-70504371D01*
X127140685Y-70456752D02*
X127140685Y-71123419D01*
X127140685Y-70551990D02*
X127093066Y-70504371D01*
X127093066Y-70504371D02*
X126997828Y-70456752D01*
X126997828Y-70456752D02*
X126854971Y-70456752D01*
X126854971Y-70456752D02*
X126759733Y-70504371D01*
X126759733Y-70504371D02*
X126712114Y-70599609D01*
X126712114Y-70599609D02*
X126712114Y-71123419D01*
X125807352Y-71123419D02*
X125807352Y-70123419D01*
X125807352Y-71075800D02*
X125902590Y-71123419D01*
X125902590Y-71123419D02*
X126093066Y-71123419D01*
X126093066Y-71123419D02*
X126188304Y-71075800D01*
X126188304Y-71075800D02*
X126235923Y-71028180D01*
X126235923Y-71028180D02*
X126283542Y-70932942D01*
X126283542Y-70932942D02*
X126283542Y-70647228D01*
X126283542Y-70647228D02*
X126235923Y-70551990D01*
X126235923Y-70551990D02*
X126188304Y-70504371D01*
X126188304Y-70504371D02*
X126093066Y-70456752D01*
X126093066Y-70456752D02*
X125902590Y-70456752D01*
X125902590Y-70456752D02*
X125807352Y-70504371D01*
X132235782Y-84696609D02*
X132092925Y-84744228D01*
X132092925Y-84744228D02*
X132045306Y-84791847D01*
X132045306Y-84791847D02*
X131997687Y-84887085D01*
X131997687Y-84887085D02*
X131997687Y-85029942D01*
X131997687Y-85029942D02*
X132045306Y-85125180D01*
X132045306Y-85125180D02*
X132092925Y-85172800D01*
X132092925Y-85172800D02*
X132188163Y-85220419D01*
X132188163Y-85220419D02*
X132569115Y-85220419D01*
X132569115Y-85220419D02*
X132569115Y-84220419D01*
X132569115Y-84220419D02*
X132235782Y-84220419D01*
X132235782Y-84220419D02*
X132140544Y-84268038D01*
X132140544Y-84268038D02*
X132092925Y-84315657D01*
X132092925Y-84315657D02*
X132045306Y-84410895D01*
X132045306Y-84410895D02*
X132045306Y-84506133D01*
X132045306Y-84506133D02*
X132092925Y-84601371D01*
X132092925Y-84601371D02*
X132140544Y-84648990D01*
X132140544Y-84648990D02*
X132235782Y-84696609D01*
X132235782Y-84696609D02*
X132569115Y-84696609D01*
X131140544Y-85220419D02*
X131140544Y-84696609D01*
X131140544Y-84696609D02*
X131188163Y-84601371D01*
X131188163Y-84601371D02*
X131283401Y-84553752D01*
X131283401Y-84553752D02*
X131473877Y-84553752D01*
X131473877Y-84553752D02*
X131569115Y-84601371D01*
X131140544Y-85172800D02*
X131235782Y-85220419D01*
X131235782Y-85220419D02*
X131473877Y-85220419D01*
X131473877Y-85220419D02*
X131569115Y-85172800D01*
X131569115Y-85172800D02*
X131616734Y-85077561D01*
X131616734Y-85077561D02*
X131616734Y-84982323D01*
X131616734Y-84982323D02*
X131569115Y-84887085D01*
X131569115Y-84887085D02*
X131473877Y-84839466D01*
X131473877Y-84839466D02*
X131235782Y-84839466D01*
X131235782Y-84839466D02*
X131140544Y-84791847D01*
X130807210Y-84553752D02*
X130426258Y-84553752D01*
X130664353Y-84220419D02*
X130664353Y-85077561D01*
X130664353Y-85077561D02*
X130616734Y-85172800D01*
X130616734Y-85172800D02*
X130521496Y-85220419D01*
X130521496Y-85220419D02*
X130426258Y-85220419D01*
X130235781Y-84553752D02*
X129854829Y-84553752D01*
X130092924Y-84220419D02*
X130092924Y-85077561D01*
X130092924Y-85077561D02*
X130045305Y-85172800D01*
X130045305Y-85172800D02*
X129950067Y-85220419D01*
X129950067Y-85220419D02*
X129854829Y-85220419D01*
X129140543Y-85172800D02*
X129235781Y-85220419D01*
X129235781Y-85220419D02*
X129426257Y-85220419D01*
X129426257Y-85220419D02*
X129521495Y-85172800D01*
X129521495Y-85172800D02*
X129569114Y-85077561D01*
X129569114Y-85077561D02*
X129569114Y-84696609D01*
X129569114Y-84696609D02*
X129521495Y-84601371D01*
X129521495Y-84601371D02*
X129426257Y-84553752D01*
X129426257Y-84553752D02*
X129235781Y-84553752D01*
X129235781Y-84553752D02*
X129140543Y-84601371D01*
X129140543Y-84601371D02*
X129092924Y-84696609D01*
X129092924Y-84696609D02*
X129092924Y-84791847D01*
X129092924Y-84791847D02*
X129569114Y-84887085D01*
X128664352Y-85220419D02*
X128664352Y-84553752D01*
X128664352Y-84744228D02*
X128616733Y-84648990D01*
X128616733Y-84648990D02*
X128569114Y-84601371D01*
X128569114Y-84601371D02*
X128473876Y-84553752D01*
X128473876Y-84553752D02*
X128378638Y-84553752D01*
X128140542Y-84553752D02*
X127902447Y-85220419D01*
X127664352Y-84553752D02*
X127902447Y-85220419D01*
X127902447Y-85220419D02*
X127997685Y-85458514D01*
X127997685Y-85458514D02*
X128045304Y-85506133D01*
X128045304Y-85506133D02*
X128140542Y-85553752D01*
X127283399Y-84839466D02*
X126521495Y-84839466D01*
X131346782Y-83426609D02*
X131203925Y-83474228D01*
X131203925Y-83474228D02*
X131156306Y-83521847D01*
X131156306Y-83521847D02*
X131108687Y-83617085D01*
X131108687Y-83617085D02*
X131108687Y-83759942D01*
X131108687Y-83759942D02*
X131156306Y-83855180D01*
X131156306Y-83855180D02*
X131203925Y-83902800D01*
X131203925Y-83902800D02*
X131299163Y-83950419D01*
X131299163Y-83950419D02*
X131680115Y-83950419D01*
X131680115Y-83950419D02*
X131680115Y-82950419D01*
X131680115Y-82950419D02*
X131346782Y-82950419D01*
X131346782Y-82950419D02*
X131251544Y-82998038D01*
X131251544Y-82998038D02*
X131203925Y-83045657D01*
X131203925Y-83045657D02*
X131156306Y-83140895D01*
X131156306Y-83140895D02*
X131156306Y-83236133D01*
X131156306Y-83236133D02*
X131203925Y-83331371D01*
X131203925Y-83331371D02*
X131251544Y-83378990D01*
X131251544Y-83378990D02*
X131346782Y-83426609D01*
X131346782Y-83426609D02*
X131680115Y-83426609D01*
X130251544Y-83950419D02*
X130251544Y-83426609D01*
X130251544Y-83426609D02*
X130299163Y-83331371D01*
X130299163Y-83331371D02*
X130394401Y-83283752D01*
X130394401Y-83283752D02*
X130584877Y-83283752D01*
X130584877Y-83283752D02*
X130680115Y-83331371D01*
X130251544Y-83902800D02*
X130346782Y-83950419D01*
X130346782Y-83950419D02*
X130584877Y-83950419D01*
X130584877Y-83950419D02*
X130680115Y-83902800D01*
X130680115Y-83902800D02*
X130727734Y-83807561D01*
X130727734Y-83807561D02*
X130727734Y-83712323D01*
X130727734Y-83712323D02*
X130680115Y-83617085D01*
X130680115Y-83617085D02*
X130584877Y-83569466D01*
X130584877Y-83569466D02*
X130346782Y-83569466D01*
X130346782Y-83569466D02*
X130251544Y-83521847D01*
X129918210Y-83283752D02*
X129537258Y-83283752D01*
X129775353Y-82950419D02*
X129775353Y-83807561D01*
X129775353Y-83807561D02*
X129727734Y-83902800D01*
X129727734Y-83902800D02*
X129632496Y-83950419D01*
X129632496Y-83950419D02*
X129537258Y-83950419D01*
X129346781Y-83283752D02*
X128965829Y-83283752D01*
X129203924Y-82950419D02*
X129203924Y-83807561D01*
X129203924Y-83807561D02*
X129156305Y-83902800D01*
X129156305Y-83902800D02*
X129061067Y-83950419D01*
X129061067Y-83950419D02*
X128965829Y-83950419D01*
X128251543Y-83902800D02*
X128346781Y-83950419D01*
X128346781Y-83950419D02*
X128537257Y-83950419D01*
X128537257Y-83950419D02*
X128632495Y-83902800D01*
X128632495Y-83902800D02*
X128680114Y-83807561D01*
X128680114Y-83807561D02*
X128680114Y-83426609D01*
X128680114Y-83426609D02*
X128632495Y-83331371D01*
X128632495Y-83331371D02*
X128537257Y-83283752D01*
X128537257Y-83283752D02*
X128346781Y-83283752D01*
X128346781Y-83283752D02*
X128251543Y-83331371D01*
X128251543Y-83331371D02*
X128203924Y-83426609D01*
X128203924Y-83426609D02*
X128203924Y-83521847D01*
X128203924Y-83521847D02*
X128680114Y-83617085D01*
X127775352Y-83950419D02*
X127775352Y-83283752D01*
X127775352Y-83474228D02*
X127727733Y-83378990D01*
X127727733Y-83378990D02*
X127680114Y-83331371D01*
X127680114Y-83331371D02*
X127584876Y-83283752D01*
X127584876Y-83283752D02*
X127489638Y-83283752D01*
X127251542Y-83283752D02*
X127013447Y-83950419D01*
X126775352Y-83283752D02*
X127013447Y-83950419D01*
X127013447Y-83950419D02*
X127108685Y-84188514D01*
X127108685Y-84188514D02*
X127156304Y-84236133D01*
X127156304Y-84236133D02*
X127251542Y-84283752D01*
X126394399Y-83569466D02*
X125632495Y-83569466D01*
X126013447Y-83950419D02*
X126013447Y-83188514D01*
M02*
